<svg width="160" height="160" viewBox="0 0 160 160" fill="none" xmlns="http://www.w3.org/2000/svg">
<path d="M60.06 148.2H13.452C12.4556 148.2 11.4717 147.977 10.5723 147.546C9.67294 147.116 8.8808 146.489 8.25378 145.712C7.62675 144.936 7.1807 144.028 6.94824 143.056C6.71576 142.084 6.70274 141.072 6.91011 140.095L14.7249 103.253C15.47 99.7397 17.381 96.5843 20.1456 94.3023C22.9104 92.02 26.365 90.7461 29.945 90.6887L42.488 90.4874C46.1199 90.4291 49.661 91.6261 52.5167 93.8775C55.3725 96.1288 57.369 99.2975 58.1708 102.851L66.5608 140.038C66.7816 141.017 66.78 142.033 66.5562 143.011C66.3322 143.989 65.8917 144.903 65.2674 145.687C64.6429 146.471 63.8506 147.104 62.9492 147.539C62.0477 147.974 61.0604 148.2 60.06 148.2Z" stroke="#27A0EB" stroke-width="3" stroke-miterlimit="10"/>
<path d="M33.8916 93.7574L43.3852 104.828C43.5662 105.039 43.807 105.19 44.0754 105.26C44.3439 105.33 44.6274 105.317 44.8881 105.222C45.1489 105.127 45.3745 104.954 45.5351 104.727C45.6956 104.5 45.7834 104.229 45.7868 103.951L45.9564 90.0557" stroke="#27A0EB" stroke-width="3" stroke-miterlimit="10"/>
<path d="M36.7967 93.7574L27.303 104.828C27.1222 105.039 26.8814 105.19 26.6129 105.26C26.3444 105.33 26.0609 105.317 25.8003 105.222C25.5395 105.127 25.3137 104.954 25.1532 104.727C24.9927 104.5 24.9049 104.229 24.9015 103.951L24.7319 90.0557" stroke="#27A0EB" stroke-width="3" stroke-miterlimit="10"/>
<path d="M55.3343 49.5829V67.3188C55.3343 72.2503 53.3812 76.9799 49.9047 80.4671C46.4282 83.9541 41.7132 85.9133 36.7967 85.9133C31.8802 85.9133 27.1652 83.9541 23.6887 80.4671C20.2122 76.9799 18.2591 72.2503 18.2591 67.3188V49.5829C18.2538 49.3258 18.2646 49.0684 18.2911 48.8125C18.485 44.0177 20.5202 39.4837 23.9711 36.1599C27.4218 32.8359 32.0206 30.9797 36.8047 30.9797C41.589 30.9797 46.1878 32.8359 49.6385 36.1599C53.0894 39.4837 55.1246 44.0177 55.3183 48.8125C55.3343 49.0693 55.3343 49.3261 55.3343 49.5829Z" stroke="#27A0EB" stroke-width="3" stroke-miterlimit="10"/>
<path d="M18.259 52.1652L33.6816 41.4961" stroke="#27A0EB" stroke-width="3" stroke-miterlimit="10"/>
<path d="M55.3341 49.5824L44.5461 42.0295M30.7642 41.2563L41.08 49.7698C41.2622 49.9202 41.4808 50.0199 41.7134 50.0589C41.9462 50.0979 42.1851 50.0749 42.4062 49.9922C42.6274 49.9093 42.8229 49.7698 42.9733 49.5872C43.1237 49.4048 43.2235 49.1859 43.263 48.9525L46.5974 43.4013" stroke="#27A0EB" stroke-width="3" stroke-miterlimit="10"/>
<path d="M18.2589 49.4868C15.0037 49.6043 11.9278 51.0121 9.70589 53.4012C7.48401 55.7905 6.29758 58.9662 6.40683 62.2318C6.2976 65.4972 7.48405 68.6729 9.70592 71.0622C11.9278 73.4515 15.0037 74.8591 18.2589 74.9766V49.4868Z" stroke="#27A0EB" stroke-width="3" stroke-miterlimit="10"/>
<path d="M55.334 49.4868C58.5893 49.6043 61.6652 51.0121 63.8871 53.4012C66.109 55.7905 67.2954 58.9662 67.1861 62.2318C67.2954 65.4972 66.1089 68.6729 63.8871 71.0622C61.6652 73.4515 58.5893 74.8591 55.334 74.9766V49.4868Z" stroke="#27A0EB" stroke-width="3" stroke-miterlimit="10"/>
<path d="M36.7966 79.7639C37.6358 79.7639 38.3161 79.0815 38.3161 78.2397C38.3161 77.398 37.6358 76.7156 36.7966 76.7156C35.9574 76.7156 35.2771 77.398 35.2771 78.2397C35.2771 79.0815 35.9574 79.7639 36.7966 79.7639Z" stroke="#27A0EB" stroke-width="3" stroke-miterlimit="10"/>
<path d="M37.9417 78.2395H57.7738C58.2552 78.2395 58.7168 78.0477 59.0573 77.7062C59.3976 77.3648 59.5888 76.9017 59.5888 76.4189V73.2493" stroke="#27A0EB" stroke-width="3" stroke-miterlimit="10"/>
<path d="M11.7249 50.0792C11.7249 33.2659 22.9498 23.4211 36.7965 23.4211C51.6876 23.4211 62.7801 35.857 61.8681 50.7939" stroke="#27A0EB" stroke-width="3" stroke-miterlimit="10"/>
<path d="M113.94 104.81C113.854 104.754 113.778 104.685 113.715 104.605C113.561 104.414 113.487 104.171 113.508 103.927L113.553 102.973V100.985C113.546 100.844 113.581 100.705 113.652 100.584C113.724 100.468 113.827 100.376 113.949 100.316C115.899 99.2518 117.732 97.9848 119.418 96.536C119.641 96.3043 119.796 96.0152 119.866 95.7004C119.936 95.3859 119.918 95.0579 119.814 94.7529C118.561 90.5086 116.305 86.6304 113.238 83.4479C113.03 83.1976 112.755 83.0124 112.445 82.9144C112.135 82.8164 111.803 82.8097 111.49 82.8952C110.4 83.2608 109.355 83.6708 108.355 84.1166C107.35 84.5834 106.37 85.1011 105.418 85.668C105.329 85.7161 105.231 85.7464 105.13 85.7571C104.886 85.7837 104.642 85.7168 104.445 85.5699L103.625 85.0706C103.31 84.8745 102.211 84.2504 101.886 84.072C101.759 84.0123 101.653 83.9161 101.58 83.7957C101.519 83.6774 101.488 83.5456 101.49 83.4123C101.539 81.1961 101.349 78.981 100.922 76.8059C100.825 76.4991 100.646 76.2248 100.405 76.0126C100.164 75.8005 99.8692 75.6586 99.5532 75.6023C95.2308 74.5414 90.7182 74.5323 86.3913 75.5755C86.075 75.6332 85.7798 75.7755 85.5372 75.9873C85.2947 76.1992 85.1135 76.4727 85.0131 76.7792C84.5796 78.9507 84.3774 81.1623 84.4094 83.3767C84.4068 83.4807 84.3855 83.5834 84.3463 83.6798C84.2535 83.9075 84.0758 84.0898 83.8508 84.188C83.5627 84.3307 83.2654 84.4555 82.986 84.6159C82.6619 84.7943 81.5627 85.4094 81.2473 85.6056C81.1369 85.6927 81.0004 85.7398 80.8599 85.7393C80.7257 85.7449 80.5931 85.7075 80.4815 85.6323C79.5537 85.0796 78.5807 84.5536 77.5537 84.0721C76.5537 83.6174 75.5177 83.1985 74.4367 82.824C74.1204 82.739 73.7865 82.7458 73.474 82.8437C73.1614 82.9415 72.883 83.1264 72.671 83.3767C69.5982 86.5507 67.3303 90.4185 66.0585 94.6548C65.9558 94.9593 65.9375 95.2862 66.0059 95.6003C66.074 95.9144 66.2262 96.204 66.4459 96.438C68.1262 97.8996 69.9563 99.1788 71.9052 100.254C71.9891 100.308 72.0649 100.374 72.1305 100.45C72.2839 100.644 72.358 100.89 72.3375 101.136L72.2926 102.09V104.07C72.3011 104.21 72.2665 104.35 72.1934 104.471C72.1206 104.588 72.018 104.683 71.8963 104.747C69.9486 105.812 68.1159 107.075 66.4279 108.519C66.2044 108.752 66.0492 109.043 65.9793 109.359C65.9094 109.675 65.9275 110.004 66.0315 110.311C67.2847 114.552 69.5409 118.427 72.6079 121.606C72.8166 121.856 73.0915 122.041 73.4007 122.141C73.7102 122.24 74.0412 122.25 74.3556 122.168C75.4457 121.794 76.4907 121.383 77.4907 120.938C78.4953 120.471 79.4755 119.953 80.4275 119.387C80.5185 119.342 80.6158 119.312 80.7158 119.297C80.9604 119.274 81.2049 119.344 81.4004 119.493L82.2203 119.993C82.5356 120.189 83.6347 120.804 83.959 120.982C84.0862 121.042 84.1927 121.138 84.2654 121.259C84.3278 121.38 84.3587 121.515 84.3555 121.651C84.3068 123.864 84.4971 126.076 84.923 128.248C85.0196 128.556 85.1982 128.832 85.4395 129.046C85.6809 129.259 85.9756 129.403 86.2923 129.461C90.6153 130.517 95.1268 130.527 99.4542 129.488C99.7718 129.43 100.068 129.287 100.311 129.073C100.554 128.859 100.734 128.584 100.832 128.275C101.266 126.104 101.468 123.892 101.436 121.678C101.439 121.574 101.46 121.471 101.499 121.375C101.545 121.263 101.612 121.161 101.697 121.075C101.782 120.99 101.883 120.922 101.995 120.875C102.283 120.724 102.58 120.599 102.859 120.447C103.184 120.26 104.283 119.645 104.598 119.458C104.709 119.371 104.845 119.321 104.986 119.315C105.119 119.314 105.251 119.351 105.364 119.422C106.292 119.984 107.265 120.501 108.292 120.991C109.292 121.446 110.328 121.856 111.409 122.231C111.725 122.315 112.059 122.309 112.372 122.211C112.684 122.113 112.963 121.928 113.175 121.678C116.245 118.506 118.513 114.641 119.787 110.409C119.89 110.103 119.908 109.774 119.84 109.459C119.772 109.143 119.619 108.852 119.4 108.616C117.719 107.158 115.889 105.881 113.94 104.81ZM103.914 108.804L103.508 109.481C103.364 109.695 103.184 109.9 103.031 110.114C102.71 110.536 102.364 110.938 101.995 111.318C101.092 112.171 100.098 112.922 99.0308 113.556C97.1452 114.547 95.0519 115.076 92.923 115.098C90.6262 114.975 88.3844 114.348 86.3556 113.262C85.4406 112.725 84.5987 112.072 83.8511 111.318C83.4817 110.938 83.1358 110.536 82.8151 110.114C82.662 109.9 82.4817 109.695 82.3375 109.481L81.9323 108.804C80.8588 106.788 80.2783 104.545 80.2387 102.26C80.2775 100.147 80.8609 98.0796 81.9323 96.2596L82.3375 95.582C82.4817 95.3592 82.662 95.163 82.8151 94.9491C83.1335 94.5254 83.4796 94.1233 83.8511 93.7456C84.7539 92.8923 85.7478 92.1417 86.815 91.5076C88.6999 90.5132 90.7932 89.9816 92.9228 89.9564C95.2196 90.0795 97.4614 90.7064 99.4903 91.7929C100.406 92.3328 101.247 92.9891 101.995 93.7454C102.366 94.1233 102.712 94.5254 103.031 94.9491C103.184 95.163 103.364 95.3592 103.508 95.582L103.914 96.2596C104.989 98.2747 105.57 100.518 105.607 102.804C105.566 104.916 104.982 106.983 103.914 108.804Z" stroke="#27A0EB" stroke-width="3" stroke-miterlimit="10"/>
<path d="M135.696 44.6324C135.609 44.6353 135.523 44.6236 135.44 44.5979C135.24 44.5393 135.072 44.4052 134.969 44.2241L134.541 43.535L133.585 42.1439C133.513 42.0489 133.47 41.9347 133.461 41.8153C133.457 41.6998 133.484 41.5851 133.541 41.4844C134.393 39.7959 135.066 38.0225 135.548 36.1931C135.593 35.9228 135.562 35.6454 135.46 35.3915C135.358 35.1374 135.187 34.9167 134.968 34.7537C132.049 32.3908 128.605 30.7695 124.929 30.0275C124.663 29.9529 124.381 29.9566 124.117 30.038C123.853 30.1195 123.618 30.2751 123.44 30.4867C122.853 31.2699 122.318 32.0606 121.834 32.8585C121.356 33.6713 120.919 34.5079 120.526 35.3652C120.486 35.4422 120.433 35.5108 120.367 35.5671C120.209 35.7036 120.006 35.7753 119.798 35.7675L118.984 35.815C118.669 35.8303 117.6 35.9257 117.288 35.9579C117.17 35.9777 117.049 35.962 116.94 35.9127C116.841 35.8598 116.755 35.7825 116.693 35.6883C115.661 34.114 114.462 32.6564 113.118 31.3409C112.902 31.1734 112.645 31.0679 112.374 31.0364C112.104 31.0047 111.829 31.0481 111.581 31.1615C108.047 32.5115 104.885 34.6892 102.36 37.5131C102.166 37.7067 102.028 37.9489 101.96 38.2145C101.893 38.4801 101.897 38.7591 101.975 39.0222C102.716 40.7513 103.638 42.3964 104.726 43.9302C104.774 44.0043 104.809 44.0863 104.828 44.1727C104.872 44.3769 104.835 44.5905 104.725 44.7681C104.592 45.0075 104.444 45.2385 104.326 45.486C104.185 45.7678 103.712 46.73 103.586 47.0199C103.55 47.1343 103.478 47.2334 103.379 47.3009C103.288 47.3699 103.177 47.4078 103.063 47.4092C102.148 47.4716 101.214 47.5745 100.264 47.7348C99.3458 47.9006 98.4194 48.1089 97.4831 48.3702C97.2209 48.4638 96.9906 48.63 96.8189 48.8499C96.6473 49.0695 96.5415 49.3337 96.5135 49.6115C95.8904 53.3191 96.1645 57.1228 97.3125 60.7022C97.3871 60.9649 97.5316 61.2023 97.7304 61.3891C97.9292 61.5758 98.1749 61.7047 98.4413 61.7622C100.32 61.9715 102.216 61.9807 104.096 61.7895C104.181 61.7871 104.266 61.7966 104.348 61.8177C104.549 61.8791 104.719 62.0151 104.823 62.1977L105.251 62.887L106.203 64.2716C106.276 64.366 106.319 64.4807 106.326 64.6004C106.332 64.7174 106.306 64.8339 106.251 64.9375C105.401 66.6249 104.727 68.3961 104.24 70.2227C104.196 70.4942 104.227 70.7727 104.33 71.0276C104.433 71.2827 104.604 71.5043 104.824 71.6683C107.741 74.0292 111.184 75.6484 114.859 76.3881C115.125 76.4619 115.407 76.4583 115.671 76.3782C115.935 76.298 116.171 76.1446 116.352 75.9353C116.934 75.1457 117.468 74.3531 117.953 73.5572C118.432 72.7444 118.869 71.9078 119.262 71.0503C119.304 70.9755 119.358 70.9075 119.421 70.8486C119.581 70.714 119.785 70.6447 119.994 70.6543L120.808 70.607C121.123 70.5915 122.188 70.49 122.5 70.4577C122.618 70.438 122.739 70.4537 122.848 70.5028C122.949 70.5574 123.036 70.6367 123.099 70.7337C124.13 72.3057 125.327 73.7612 126.67 75.0747C126.886 75.2435 127.143 75.3499 127.415 75.3825C127.686 75.4151 127.962 75.3729 128.211 75.2603C131.744 73.9071 134.905 71.7299 137.432 68.9089C137.627 68.7145 137.765 68.471 137.832 68.2041C137.899 67.9372 137.893 67.6569 137.813 67.3934C137.072 65.6644 136.15 64.0193 135.062 62.4855C135.014 62.4115 134.979 62.3294 134.96 62.243C134.938 62.1427 134.937 62.0388 134.955 61.9377C134.973 61.8367 135.011 61.7403 135.067 61.6539C135.196 61.4083 135.344 61.1771 135.466 60.9359C135.603 60.6479 136.076 59.6855 136.206 59.402C136.242 59.2873 136.313 59.1868 136.409 59.1148C136.502 59.0492 136.611 59.0116 136.725 59.0065C137.644 58.9503 138.574 58.8412 139.528 58.6871C140.446 58.5212 141.369 58.3068 142.305 58.0455C142.567 57.9519 142.797 57.7855 142.969 57.5659C143.141 57.346 143.247 57.082 143.274 56.8043C143.897 53.0988 143.625 49.2977 142.48 45.7198C142.405 45.4561 142.259 45.2177 142.06 45.0299C141.86 44.8422 141.614 44.7121 141.347 44.6535C139.469 44.4462 137.575 44.4391 135.696 44.6324ZM130.602 52.2796L130.645 52.9499C130.647 53.1694 130.619 53.4001 130.615 53.6238C130.594 54.0742 130.545 54.5228 130.469 54.9673C130.248 56.0011 129.914 57.0073 129.472 57.9675C128.63 59.5739 127.42 60.9569 125.941 62.0027C124.275 63.0281 122.405 63.6745 120.463 63.8963C119.564 63.9636 118.661 63.914 117.776 63.7487C117.335 63.6617 116.899 63.5479 116.472 63.4081C116.262 63.3324 116.037 63.2763 115.833 63.1963L115.224 62.9185C113.503 62.0275 112.018 60.7393 110.891 59.1598C109.902 57.6627 109.316 55.934 109.19 54.1423L109.147 53.4721C109.141 53.2463 109.173 53.0219 109.177 52.7982C109.196 52.3476 109.245 51.8988 109.323 51.4547C109.544 50.4209 109.878 49.4147 110.32 48.4545C111.16 46.8465 112.369 45.4614 113.847 44.4131C115.513 43.3876 117.383 42.7412 119.325 42.5195C120.225 42.454 121.13 42.5059 122.016 42.6732C122.458 42.7579 122.893 42.8716 123.32 43.0139C123.53 43.0895 123.751 43.1395 123.959 43.2257L124.568 43.5035C126.29 44.3929 127.775 45.6814 128.901 47.262C129.888 48.7603 130.474 50.4883 130.602 52.2796Z" stroke="#27A0EB" stroke-width="3" stroke-miterlimit="10"/>
</svg>
