<svg width="160" height="160" viewBox="0 0 160 160" fill="none" xmlns="http://www.w3.org/2000/svg">
<path d="M114.033 61.7806L132.45 72.3776C132.523 72.4169 132.585 72.4761 132.627 72.5488C132.67 72.6214 132.692 72.7046 132.691 72.7893C132.691 72.8739 132.667 72.9566 132.623 73.0284C132.58 73.1004 132.517 73.1585 132.443 73.1968L79.4641 100.45L26.3772 73.1412C26.3133 73.1084 26.2594 73.0582 26.2217 72.9963C26.1839 72.9342 26.1636 72.8628 26.1631 72.7899C26.1625 72.7169 26.1817 72.6453 26.2183 72.5825C26.2551 72.52 26.3081 72.4689 26.3714 72.435L50.9133 59.2859" stroke="#27A0EB" stroke-width="3" stroke-miterlimit="10"/>
<path d="M133.226 109.308V124.379L79.8112 151.968C79.7747 151.987 79.7341 151.996 79.6933 151.994C79.6525 151.993 79.6127 151.98 79.5778 151.958C79.5431 151.937 79.5143 151.906 79.4943 151.87C79.4743 151.833 79.4639 151.792 79.4639 151.75V100.451L132.599 73.0068C132.665 72.9729 132.738 72.9565 132.812 72.9596C132.886 72.9628 132.957 72.985 133.02 73.0245C133.083 73.0639 133.135 73.1191 133.171 73.1849C133.207 73.2506 133.226 73.3245 133.226 73.3999" stroke="#27A0EB" stroke-width="3" stroke-miterlimit="10"/>
<path d="M150.914 94.7042C152.546 96.6698 151.942 99.6408 149.672 100.813L103.227 124.802C101.54 125.674 99.4723 125.239 98.2794 123.761L79.4639 100.451L132.599 73.0068C132.665 72.9729 132.738 72.9565 132.812 72.9596C132.886 72.9628 132.957 72.985 133.02 73.0245C133.083 73.0639 133.135 73.1191 133.171 73.1849C133.207 73.2506 133.226 73.3245 133.226 73.3999L150.914 94.7042Z" stroke="#27A0EB" stroke-width="3" stroke-miterlimit="10"/>
<path d="M113.423 61.4668L132.45 72.3793L151.831 50.2643C153.544 48.3099 152.967 45.2666 150.658 44.074L114.034 25.1562" stroke="#27A0EB" stroke-width="3" stroke-miterlimit="10"/>
<path d="M51.261 59.2861L26.7504 72.502C26.6852 72.5372 26.6122 72.5548 26.5383 72.5529C26.4645 72.5511 26.3924 72.5301 26.3287 72.4919C26.2652 72.4535 26.2122 72.3992 26.1749 72.3343C26.1378 72.2692 26.1176 72.1954 26.1164 72.1202L8.06493 51.1358C6.39907 49.1993 6.9505 46.2188 9.19894 45.0064L51.5823 22.1538" stroke="#27A0EB" stroke-width="3" stroke-miterlimit="10"/>
<path d="M7.97683 94.7042C6.34484 96.6698 6.94881 99.6408 9.21875 100.813L55.6634 124.802C57.3509 125.674 59.4186 125.239 60.6115 123.761L79.427 100.451L26.292 73.0068C26.2262 72.9729 26.1528 72.9565 26.079 72.9596C26.0052 72.9628 25.9334 72.985 25.8705 73.0245C25.8075 73.0639 25.7555 73.1191 25.7195 73.1849V73.1849C25.6499 73.312 25.6138 73.461 25.5212 73.5725L7.97683 94.7042Z" stroke="#27A0EB" stroke-width="3" stroke-miterlimit="10"/>
<path d="M25.7017 108.109V124.234C25.7017 124.278 25.7135 124.32 25.7357 124.357C25.7578 124.394 25.7897 124.424 25.8276 124.443L79.1308 151.975C79.1658 151.993 79.2047 152.001 79.2439 152C79.2831 151.998 79.3213 151.986 79.3546 151.965C79.3881 151.944 79.4157 151.915 79.4349 151.88C79.454 151.845 79.4641 151.806 79.4641 151.766V100.594C79.4641 100.551 79.4524 100.509 79.4301 100.472C79.4079 100.435 79.3761 100.405 79.3383 100.386L26.0349 72.8542C26.0001 72.8361 25.961 72.8274 25.9218 72.829C25.8826 72.8306 25.8445 72.8425 25.8111 72.8634C25.7777 72.8844 25.7501 72.9137 25.7309 72.9486C25.7117 72.9836 25.7017 73.0228 25.7017 73.0628" stroke="#27A0EB" stroke-width="3" stroke-miterlimit="10"/>
<path d="M114.033 83.3736V14.7596C114.033 12.9668 113.335 11.2475 112.092 9.97984C110.848 8.71218 109.162 8 107.403 8H57.2469C55.4884 8 53.802 8.71218 52.5586 9.97984C51.3153 11.2475 50.6167 12.9668 50.6167 14.7596V86.012" stroke="#27A0EB" stroke-width="3" stroke-miterlimit="10"/>
<path d="M93.0986 50.3118L103.417 60.8297L93.4806 70.9598" stroke="#27A0EB" stroke-width="3" stroke-miterlimit="10"/>
<path d="M71.5499 50.3118L61.2334 60.8297L71.1696 70.9598" stroke="#27A0EB" stroke-width="3" stroke-miterlimit="10"/>
<path d="M74.9375 77.7272L89.7127 42.6868" stroke="#27A0EB" stroke-width="3" stroke-miterlimit="10"/>
<path d="M96.4373 8H68.2124C65.2202 8 62.7944 10.473 62.7944 13.5237V13.758C62.7944 16.8086 65.2202 19.2818 68.2124 19.2818H96.4373C99.4296 19.2818 101.855 16.8086 101.855 13.758V13.5237C101.855 10.473 99.4296 8 96.4373 8Z" stroke="#27A0EB" stroke-width="3" stroke-miterlimit="10"/>
</svg>
