<svg width="160" height="160" viewBox="0 0 160 160" fill="none" xmlns="http://www.w3.org/2000/svg">
<path d="M74.9443 133.324L74.9805 146.873" stroke="#27A0EB" stroke-width="3" stroke-miterlimit="10"/>
<path d="M85.0195 133.324V146.988" stroke="#27A0EB" stroke-width="3" stroke-miterlimit="10"/>
<path d="M93.2834 155.192C92.1981 155.192 91.1235 154.98 90.1208 154.567C89.1183 154.155 88.2072 153.551 87.4398 152.789C86.6725 152.027 86.0639 151.123 85.6485 150.128C85.2333 149.132 85.0195 148.066 85.0195 146.988" stroke="#27A0EB" stroke-width="3" stroke-miterlimit="10"/>
<path d="M66.7168 155.077C68.9085 155.077 71.0104 154.213 72.5602 152.674C74.1099 151.136 74.9805 149.049 74.9805 146.874" stroke="#27A0EB" stroke-width="3" stroke-miterlimit="10"/>
<path d="M66.7168 155.077L93.2829 155.192" stroke="#27A0EB" stroke-width="3" stroke-miterlimit="10"/>
<path d="M47.0112 115.518H143.691" stroke="#27A0EB" stroke-width="3" stroke-miterlimit="10"/>
<path d="M15.8721 115.518H47.0114" stroke="#27A0EB" stroke-width="3" stroke-miterlimit="10"/>
<path d="M34.77 39.3164H16.6379C14.7058 39.3857 12.8802 40.2129 11.5616 41.6166C10.2431 43.0202 9.53913 44.8858 9.60425 46.8041V125.426C9.53913 127.345 10.243 129.21 11.5616 130.614C12.8802 132.018 14.7057 132.845 16.6379 132.914H33.9891" stroke="#27A0EB" stroke-width="3" stroke-miterlimit="10"/>
<path d="M53.7999 39.3171H47.6092H34.77" stroke="#27A0EB" stroke-width="3" stroke-miterlimit="10"/>
<path d="M31.4414 132.914H143.362C145.294 132.845 147.12 132.018 148.439 130.614C149.757 129.21 150.461 127.345 150.396 125.427V46.8043C150.461 44.8861 149.757 43.0205 148.439 41.6168C147.12 40.213 145.294 39.3858 143.362 39.3165H115.964L106.329 39.2266" stroke="#27A0EB" stroke-width="3" stroke-miterlimit="10"/>
<path d="M108.558 92.764L80.3096 105.571C80.2464 105.599 80.1772 105.612 80.108 105.607C80.0388 105.602 79.9719 105.58 79.9135 105.542C79.8551 105.505 79.8072 105.454 79.7738 105.394C79.7407 105.333 79.7231 105.265 79.7231 105.196L79.7265 72.4588L109.423 59.1553C109.498 59.1215 109.58 59.1071 109.662 59.1132C109.745 59.1194 109.824 59.1459 109.893 59.1901C109.962 59.2345 110.019 59.2954 110.059 59.3673C110.098 59.439 110.119 59.5195 110.119 59.6014V90.3682C110.119 90.8744 109.971 91.3699 109.695 91.7948C109.418 92.2199 109.023 92.5566 108.558 92.764Z" stroke="#27A0EB" stroke-width="3" stroke-miterlimit="10"/>
<path d="M49.7789 92.4144L78.7166 105.385C78.8253 105.434 78.9443 105.454 79.0629 105.446C79.1818 105.437 79.2964 105.399 79.3965 105.335C79.4964 105.271 79.5787 105.183 79.6356 105.079C79.6927 104.975 79.7226 104.859 79.7226 104.74L79.7255 73.2012C79.7255 72.98 79.6611 72.7636 79.5397 72.5778C79.4184 72.3923 79.2456 72.2455 79.0421 72.1555L49.3798 59.0135C49.3388 58.9952 49.2937 58.9873 49.2489 58.9908C49.2041 58.9942 49.1607 59.0085 49.123 59.0329C49.0853 59.0571 49.0542 59.0903 49.0327 59.1297C49.0113 59.1689 49 59.2128 49 59.2575V91.2188C49 91.4715 49.0734 91.7187 49.2116 91.9308C49.3498 92.1428 49.5468 92.3108 49.7789 92.4144Z" stroke="#27A0EB" stroke-width="3" stroke-miterlimit="10"/>
<path d="M80.3303 72.188C80.1402 72.2733 79.934 72.3175 79.7255 72.3177C79.5168 72.3181 79.3106 72.2746 79.1201 72.1899L50.5113 59.4835C49.9259 59.2361 47.4666 59.6528 50.4852 58.1482L77.9027 45.294C78.3118 45.1024 78.7581 45.0019 79.2103 45C79.6625 44.9979 80.1097 45.0945 80.5204 45.2825L109.028 58.3454C110.612 58.8687 110.364 59.401 109.023 59.3332L80.3303 72.188Z" stroke="#27A0EB" stroke-width="3" stroke-miterlimit="10"/>
<path d="M64.5 53.5V26.9603H34.5V19.5" stroke="#27A0EB" stroke-width="3" stroke-miterlimit="10"/>
<path d="M95 53V27.4603H125V20" stroke="#27A0EB" stroke-width="3" stroke-miterlimit="10"/>
<path d="M80 47.3433V22.0164" stroke="#27A0EB" stroke-width="3" stroke-miterlimit="10"/>
<path d="M34.3655 21.6016C36.7582 21.6016 38.6978 19.676 38.6978 17.3008C38.6978 14.9255 36.7582 13 34.3655 13C31.9729 13 30.0332 14.9255 30.0332 17.3008C30.0332 19.676 31.9729 21.6016 34.3655 21.6016Z" stroke="#27A0EB" stroke-width="3" stroke-miterlimit="10"/>
<path d="M79.9998 21.6015C82.3924 21.6015 84.3321 19.676 84.3321 17.3008C84.3321 14.9255 82.3924 13 79.9998 13C77.6072 13 75.6675 14.9255 75.6675 17.3008C75.6675 19.676 77.6072 21.6015 79.9998 21.6015Z" stroke="#27A0EB" stroke-width="3" stroke-miterlimit="10"/>
<path d="M125.351 21.6016C127.744 21.6016 129.684 19.676 129.684 17.3008C129.684 14.9255 127.744 13 125.351 13C122.959 13 121.019 14.9255 121.019 17.3008C121.019 19.676 122.959 21.6016 125.351 21.6016Z" stroke="#27A0EB" stroke-width="3" stroke-miterlimit="10"/>
</svg>
