<svg width="33" height="32" viewBox="0 0 33 32" fill="none" xmlns="http://www.w3.org/2000/svg">
<path d="M31.9963 18.4633C31.9953 18.4352 31.9913 18.4078 31.9879 18.3798C31.9821 18.3326 31.9741 18.2867 31.9621 18.2418C31.9586 18.2285 31.9587 18.2148 31.9546 18.2017L26.9546 2.20166C26.8242 1.78418 26.4375 1.5 26 1.5H7C6.5625 1.5 6.17578 1.78418 6.04541 2.20166L1.04541 18.2017C1.04129 18.2148 1.04144 18.2285 1.0379 18.2418C1.02582 18.2868 1.01779 18.3328 1.01209 18.38C1.00873 18.4079 1.00473 18.4352 1.00372 18.4631C1.00327 18.4756 1 18.4874 1 18.5V29.5C1 30.0522 1.44775 30.5 2 30.5H25C25.5522 30.5 26 30.0522 26 29.5C26 28.9478 25.5522 28.5 25 28.5H3V19.5H30V28.5H28.5C27.9478 28.5 27.5 28.9478 27.5 29.5C27.5 30.0522 27.9478 30.5 28.5 30.5H31C31.5522 30.5 32 30.0522 32 29.5V18.5C32 18.4874 31.9968 18.4757 31.9963 18.4633ZM3.36035 17.5L6.0166 9H11C11.3149 9 11.6113 8.85156 11.7998 8.6001L13 7H20L21.2002 8.6001C21.3887 8.85156 21.6851 9 22 9H24C24.5522 9 25 8.55225 25 8C25 7.44775 24.5522 7 24 7H22.5L21.2998 5.3999C21.1113 5.14844 20.8149 5 20.5 5H12.5C12.1851 5 11.8887 5.14844 11.7002 5.3999L10.5 7H6.6416L7.73535 3.5H25.2646L28.2334 13H24.5664L23.3574 10.9854C23.1768 10.6841 22.8511 10.5 22.5 10.5H10.5C10.1489 10.5 9.82324 10.6841 9.64258 10.9854L8.43359 13H7C6.44775 13 6 13.4478 6 14C6 14.5522 6.44775 15 7 15H9C9.35107 15 9.67676 14.8159 9.85742 14.5146L11.0664 12.5H21.9336L23.1426 14.5146C23.3232 14.8159 23.6489 15 24 15H28.8584L29.6396 17.5H3.36035Z" fill="url(#paint0_linear_254_2448)"/>
<path d="M14 23C13.4478 23 13 23.4478 13 24C13 24.5522 13.4478 25 14 25H19C19.5522 25 20 24.5522 20 24C20 23.4478 19.5522 23 19 23H14Z" fill="url(#paint1_linear_254_2448)"/>
<defs>
<linearGradient id="paint0_linear_254_2448" x1="1" y1="24.0132" x2="32.0111" y2="23.7379" gradientUnits="userSpaceOnUse">
<stop stop-color="#FF6060"/>
<stop offset="1" stop-color="#FE124A"/>
</linearGradient>
<linearGradient id="paint1_linear_254_2448" x1="13" y1="24.5526" x2="19.9971" y2="24.3493" gradientUnits="userSpaceOnUse">
<stop stop-color="#FF6060"/>
<stop offset="1" stop-color="#FE124A"/>
</linearGradient>
</defs>
</svg>
