<svg width="33" height="32" viewBox="0 0 33 32" fill="none" xmlns="http://www.w3.org/2000/svg">
<path d="M24 4.5C23.998 4.5 23.9966 4.5 23.9946 4.5C22.1157 1.98486 19.1685 0.5 16 0.5C11.1816 0.5 7.10303 3.90771 6.18945 8.55444C3.26318 8.95142 1 11.4663 1 14.5C1 17.8083 3.69141 20.5 7 20.5H17C17.5522 20.5 18 20.0522 18 19.5C18 18.9478 17.5522 18.5 17 18.5H7C4.79443 18.5 3 16.7056 3 14.5C3 12.2944 4.79443 10.5 7 10.5H7.05518C7.56494 10.5 7.99268 10.1169 8.04883 9.61035C8.49951 5.55688 11.9175 2.5 16 2.5C18.6875 2.5 21.1758 3.83545 22.6562 6.07202C22.8589 6.37769 23.21 6.54785 23.5791 6.51611C23.7192 6.50366 23.8599 6.5 24 6.5C27.3086 6.5 30 9.19165 30 12.5C30 15.8083 27.3086 18.5 24 18.5H20.5C19.9478 18.5 19.5 18.9478 19.5 19.5C19.5 20.0522 19.9478 20.5 20.5 20.5H24C28.4111 20.5 32 16.9111 32 12.5C32 8.08887 28.4111 4.5 24 4.5Z" fill="url(#paint0_linear_254_2438)"/>
<path d="M16.5 22C15.9478 22 15.5 22.4478 15.5 23V26.5C15.5 27.0522 15.9478 27.5 16.5 27.5C17.0522 27.5 17.5 27.0522 17.5 26.5V23C17.5 22.4478 17.0522 22 16.5 22Z" fill="url(#paint1_linear_254_2438)"/>
<path d="M16.5 29C15.9478 29 15.5 29.4478 15.5 30V30.5C15.5 31.0522 15.9478 31.5 16.5 31.5C17.0522 31.5 17.5 31.0522 17.5 30.5V30C17.5 29.4478 17.0522 29 16.5 29Z" fill="url(#paint2_linear_254_2438)"/>
<path d="M26.1143 26.5686L23.6289 25.5745C23.2466 25.4216 23 25.0571 23 24.646V23C23 22.4478 22.5522 22 22 22C21.4478 22 21 22.4478 21 23V24.646C21 25.8799 21.7402 26.9731 22.8857 27.4314L25.3711 28.4255C25.7534 28.5784 26 28.9429 26 29.354V30.5C26 31.0522 26.4478 31.5 27 31.5C27.5522 31.5 28 31.0522 28 30.5V29.354C28 28.1201 27.2598 27.0269 26.1143 26.5686Z" fill="url(#paint3_linear_254_2438)"/>
<path d="M11 22C10.4478 22 10 22.4478 10 23V24.646C10 25.0571 9.75342 25.4216 9.37109 25.5745L6.88574 26.5686C5.74023 27.0269 5 28.1201 5 29.354V30.5C5 31.0522 5.44775 31.5 6 31.5C6.55225 31.5 7 31.0522 7 30.5V29.354C7 28.9429 7.24658 28.5784 7.62891 28.4255L10.1143 27.4314C11.2598 26.9731 12 25.8799 12 24.646V23C12 22.4478 11.5522 22 11 22Z" fill="url(#paint4_linear_254_2438)"/>
<defs>
<linearGradient id="paint0_linear_254_2438" x1="1" y1="16.0263" x2="32.0084" y2="15.6272" gradientUnits="userSpaceOnUse">
<stop stop-color="#FF6060"/>
<stop offset="1" stop-color="#FE124A"/>
</linearGradient>
<linearGradient id="paint1_linear_254_2438" x1="15.5" y1="26.2697" x2="17.5009" y2="26.2637" gradientUnits="userSpaceOnUse">
<stop stop-color="#FF6060"/>
<stop offset="1" stop-color="#FE124A"/>
</linearGradient>
<linearGradient id="paint2_linear_254_2438" x1="15.5" y1="30.9408" x2="17.5008" y2="30.9275" gradientUnits="userSpaceOnUse">
<stop stop-color="#FF6060"/>
<stop offset="1" stop-color="#FE124A"/>
</linearGradient>
<linearGradient id="paint3_linear_254_2438" x1="21" y1="29.375" x2="28.0028" y2="29.3322" gradientUnits="userSpaceOnUse">
<stop stop-color="#FF6060"/>
<stop offset="1" stop-color="#FE124A"/>
</linearGradient>
<linearGradient id="paint4_linear_254_2438" x1="5" y1="29.375" x2="12.0028" y2="29.3322" gradientUnits="userSpaceOnUse">
<stop stop-color="#FF6060"/>
<stop offset="1" stop-color="#FE124A"/>
</linearGradient>
</defs>
</svg>
