<svg width="32" height="32" viewBox="0 0 32 32" fill="none" xmlns="http://www.w3.org/2000/svg">
<path d="M23.0587 11.5889C22.642 11.5889 22.224 11.6191 21.8163 11.6792C21.2377 11.7642 20.8378 12.3022 20.9228 12.8809C21.008 13.459 21.547 13.8613 22.1244 13.7739C22.4306 13.729 22.7448 13.7061 23.0587 13.7061C26.5617 13.7061 29.4115 16.5562 29.4115 20.0591C29.4115 23.562 26.5617 26.4121 23.0587 26.4121C22.7448 26.4121 22.4306 26.3892 22.1244 26.3442C21.547 26.2573 21.008 26.6592 20.9228 27.2373C20.8378 27.8159 21.2377 28.354 21.8163 28.439C22.224 28.499 22.642 28.5293 23.0587 28.5293C27.7294 28.5293 31.5292 24.7295 31.5292 20.0591C31.5292 15.3887 27.7294 11.5889 23.0587 11.5889Z" fill="url(#paint0_linear_254_2458)"/>
<path d="M18.4705 5.9707C17.9375 5.9707 17.502 6.3877 17.4722 6.91309C17.1687 7.39062 14.6758 8.4707 9.97046 8.4707C9.68164 8.4707 9.40161 8.46643 9.12946 8.45868C9.03821 8.45609 8.95288 8.45096 8.86349 8.44754C8.68649 8.44077 8.50851 8.43442 8.33887 8.42465C8.23541 8.4187 8.13828 8.41031 8.03754 8.40332C7.88953 8.39304 7.73984 8.38333 7.59772 8.37091C7.49612 8.36203 7.40063 8.3511 7.30206 8.34119C7.16833 8.32773 7.03308 8.31479 6.90488 8.29959C6.80896 8.28824 6.71869 8.27527 6.62589 8.263C6.50369 8.24683 6.3804 8.23102 6.26358 8.21341C6.17249 8.19968 6.08661 8.18472 5.99875 8.1702C5.88843 8.15195 5.77725 8.13388 5.67209 8.1145C5.58762 8.09894 5.50784 8.08246 5.42667 8.06622C5.32593 8.04608 5.22473 8.02603 5.12912 8.00497C5.05206 7.98801 4.97922 7.97043 4.90549 7.95297C4.81451 7.93143 4.72351 7.90991 4.6376 7.8877C4.56723 7.86951 4.50064 7.85101 4.43369 7.83249C4.35233 7.81 4.27136 7.78745 4.19501 7.76453C4.13217 7.74567 4.07254 7.72662 4.01309 7.70758C3.94101 7.68451 3.86981 7.66138 3.80273 7.63812C3.74701 7.6188 3.69403 7.59949 3.64172 7.58011C3.57932 7.55701 3.51822 7.53397 3.46066 7.51093C3.41214 7.49149 3.36584 7.47214 3.3208 7.45282C3.26743 7.42993 3.21576 7.40717 3.16724 7.38458C3.12662 7.36566 3.08777 7.34689 3.05057 7.32828C3.0061 7.30603 2.96393 7.28403 2.92435 7.2623C2.8909 7.24393 2.85883 7.22577 2.82886 7.20786C2.79385 7.18692 2.7616 7.16644 2.73135 7.14627C2.70517 7.12878 2.67987 7.11148 2.65726 7.09464C2.63138 7.07535 2.60867 7.05673 2.58743 7.03839C2.56879 7.02228 2.55063 7.00629 2.53558 6.99097C2.52783 6.98309 2.52292 6.97592 2.51611 6.96826C2.97525 6.46603 5.45276 5.4707 9.97046 5.4707C11.7554 5.4707 13.4441 5.63525 14.8542 5.94727C15.394 6.06689 15.9275 5.72607 16.0464 5.18652C16.1658 4.64746 15.8252 4.11328 15.2859 3.99414C13.7363 3.65186 11.8982 3.4707 9.97046 3.4707C6.44189 3.4707 0.470459 4.20801 0.470459 6.9707V11.4707V15.9707V20.4707V24.9707C0.470459 27.7334 6.44189 28.4707 9.97046 28.4707C13.7271 28.4707 18.4282 27.7417 19.2981 25.7207C19.4126 25.481 19.4705 25.2285 19.4705 24.9707V20.4707V16.4707V15.9707V6.9707C19.4705 6.41846 19.0227 5.9707 18.4705 5.9707ZM17.4705 24.9067C17.1934 25.3789 14.7012 26.4707 9.97046 26.4707C5.27344 26.4707 2.78101 25.3945 2.47046 24.9155V22.7593C2.47775 22.7625 2.48642 22.765 2.49374 22.7682C2.73688 22.8756 2.99582 22.9743 3.26724 23.065C3.28922 23.0724 3.31155 23.0793 3.33368 23.0865C3.60004 23.1736 3.87726 23.2534 4.16339 23.3257C4.18222 23.3305 4.20056 23.3356 4.21945 23.3403C4.5141 23.4136 4.81723 23.4791 5.1254 23.538C5.15289 23.5433 5.18024 23.5482 5.20779 23.5534C5.51056 23.6099 5.81738 23.6601 6.12595 23.7039C6.14142 23.7061 6.15662 23.7086 6.17212 23.7108C6.48853 23.755 6.80576 23.7925 7.12097 23.8245C7.1496 23.8275 7.17773 23.8302 7.20633 23.833C7.51749 23.8636 7.82608 23.8891 8.12863 23.9089C8.13745 23.9095 8.14633 23.9102 8.15515 23.9107C8.46371 23.9307 8.76489 23.9448 9.0571 23.9546C9.08115 23.9554 9.10464 23.9561 9.12854 23.9568C9.42035 23.9659 9.70306 23.9707 9.97046 23.9707C11.8931 23.9707 13.7283 23.7896 15.2776 23.4473C15.8169 23.3281 16.1575 22.7939 16.0381 22.2549C15.9189 21.7153 15.3835 21.375 14.8459 21.4941C13.436 21.8062 11.7502 21.9707 9.97046 21.9707C9.67676 21.9707 9.39172 21.9665 9.11526 21.9585C8.97592 21.9545 8.84525 21.9468 8.71027 21.9409C8.5773 21.935 8.44003 21.931 8.31128 21.9234C8.18518 21.916 8.0675 21.9055 7.94547 21.8965C7.81653 21.8871 7.68344 21.8791 7.55905 21.868C7.46887 21.86 7.38586 21.8496 7.29807 21.8408C7.14969 21.8258 6.99875 21.8117 6.85718 21.7946C6.79425 21.787 6.73715 21.7778 6.6756 21.7698C6.51733 21.7492 6.35846 21.7289 6.20911 21.706C6.13007 21.6938 6.05829 21.68 5.98175 21.6673C5.85703 21.6465 5.72961 21.6264 5.61148 21.6042C5.54092 21.5909 5.47742 21.5764 5.40924 21.5627C5.29333 21.5393 5.17496 21.5164 5.06589 21.4919C4.99817 21.4767 4.93768 21.4605 4.87259 21.4449C4.77106 21.4206 4.66681 21.3967 4.57166 21.3716C4.51239 21.356 4.46021 21.3398 4.40338 21.3239C4.31049 21.2979 4.21506 21.2721 4.12878 21.2457C4.07486 21.2291 4.02811 21.2122 3.97678 21.1956C3.89594 21.1693 3.81241 21.1432 3.73795 21.1167C3.67926 21.0959 3.62869 21.0751 3.57397 21.0542C3.51538 21.0319 3.45294 21.0096 3.39893 20.9873C3.34512 20.9652 3.29977 20.9435 3.25049 20.9216C3.20374 20.9008 3.15286 20.8797 3.11017 20.8592C3.06335 20.8367 3.02499 20.815 2.98306 20.793C2.94675 20.7739 2.90622 20.7544 2.87357 20.7357C2.83023 20.711 2.7959 20.6876 2.75903 20.6638C2.73605 20.6489 2.70856 20.6333 2.68805 20.6189C2.65396 20.5949 2.62897 20.5727 2.60184 20.55C2.58649 20.5371 2.56659 20.5234 2.55347 20.511C2.53064 20.4895 2.51685 20.4702 2.50076 20.4504C2.49136 20.4388 2.47757 20.4261 2.47046 20.4151V15.9707V13.7593C2.47775 13.7625 2.48642 13.765 2.49374 13.7682C2.73688 13.8756 2.99582 13.9743 3.26724 14.065C3.28922 14.0724 3.31155 14.0793 3.33368 14.0865C3.60004 14.1736 3.87726 14.2534 4.16339 14.3257C4.18222 14.3305 4.20056 14.3356 4.21945 14.3403C4.5141 14.4136 4.81723 14.4791 5.1254 14.538C5.15289 14.5433 5.18024 14.5482 5.20779 14.5534C5.51056 14.6099 5.81738 14.6601 6.12595 14.7039C6.14142 14.7061 6.15662 14.7086 6.17212 14.7108C6.48853 14.755 6.80576 14.7925 7.12097 14.8245C7.1496 14.8275 7.17773 14.8302 7.20633 14.833C7.51749 14.8636 7.82608 14.8891 8.12863 14.9089C8.13745 14.9095 8.14633 14.9102 8.15515 14.9107C8.46371 14.9307 8.76489 14.9448 9.0571 14.9546C9.08115 14.9554 9.10464 14.9561 9.12854 14.9568C9.42035 14.9659 9.70306 14.9707 9.97046 14.9707C11.8982 14.9707 13.7363 14.7896 15.2859 14.4473C15.8252 14.3281 16.1658 13.7939 16.0464 13.2549C15.9275 12.7153 15.3945 12.3745 14.8542 12.4941C13.4441 12.8062 11.7554 12.9707 9.97046 12.9707C9.67676 12.9707 9.39172 12.9665 9.11526 12.9585C8.97592 12.9545 8.84525 12.9468 8.71027 12.9409C8.5773 12.935 8.44003 12.931 8.31128 12.9234C8.18518 12.916 8.0675 12.9055 7.94547 12.8965C7.81653 12.8871 7.68344 12.8791 7.55905 12.868C7.46887 12.86 7.38586 12.8496 7.29807 12.8408C7.14969 12.8258 6.99875 12.8117 6.85718 12.7946C6.79425 12.787 6.73715 12.7778 6.6756 12.7698C6.51733 12.7492 6.35846 12.7289 6.20911 12.706C6.13007 12.6938 6.05829 12.68 5.98175 12.6673C5.85703 12.6465 5.72961 12.6264 5.61148 12.6042C5.54092 12.5909 5.47742 12.5764 5.40924 12.5627C5.29333 12.5393 5.17496 12.5164 5.06589 12.4919C4.99817 12.4767 4.93768 12.4605 4.87259 12.4449C4.77106 12.4206 4.66681 12.3967 4.57166 12.3716C4.51239 12.356 4.46021 12.3398 4.40338 12.3239C4.31049 12.2979 4.21506 12.2721 4.12878 12.2457C4.07486 12.2291 4.02811 12.2122 3.97678 12.1956C3.89594 12.1693 3.81241 12.1432 3.73795 12.1167C3.67926 12.0959 3.62869 12.0751 3.57397 12.0542C3.51538 12.0319 3.45294 12.0096 3.39893 11.9873C3.34512 11.9652 3.29977 11.9435 3.25049 11.9216C3.20374 11.9008 3.15286 11.8797 3.11017 11.8592C3.06335 11.8367 3.02499 11.815 2.98306 11.793C2.94675 11.7739 2.90622 11.7544 2.87357 11.7357C2.83023 11.711 2.7959 11.6876 2.75903 11.6638C2.73605 11.6489 2.70856 11.6333 2.68805 11.6189C2.65396 11.5949 2.62897 11.5727 2.60184 11.55C2.58649 11.5371 2.56659 11.5234 2.55347 11.511C2.53064 11.4895 2.51685 11.4702 2.50076 11.4504C2.49136 11.4388 2.47757 11.4261 2.47046 11.4151V9.25928C2.47775 9.26251 2.48642 9.26498 2.49374 9.26822C2.73688 9.37561 2.99582 9.4743 3.26724 9.56503C3.28922 9.57236 3.31155 9.57932 3.33368 9.58655C3.60004 9.67365 3.87726 9.75339 4.16339 9.82574C4.18222 9.83051 4.20056 9.83557 4.21945 9.84027C4.5141 9.91357 4.81723 9.97913 5.1254 10.038C5.15289 10.0433 5.18024 10.0482 5.20779 10.0534C5.51056 10.1099 5.81738 10.1601 6.12595 10.2039C6.14142 10.2061 6.15662 10.2086 6.17212 10.2108C6.48853 10.255 6.80576 10.2925 7.12097 10.3245C7.1496 10.3275 7.17773 10.3302 7.20633 10.333C7.51749 10.3636 7.82608 10.3891 8.12863 10.4089C8.13745 10.4095 8.14633 10.4102 8.15515 10.4107C8.46371 10.4307 8.76489 10.4448 9.0571 10.4546C9.08115 10.4554 9.10464 10.4561 9.12854 10.4568C9.42035 10.4659 9.70306 10.4707 9.97046 10.4707C10.2379 10.4707 10.5206 10.4659 10.8124 10.4568C10.8363 10.4561 10.8598 10.4554 10.8838 10.4546C11.176 10.4448 11.4772 10.4307 11.7858 10.4107C11.7946 10.4102 11.8035 10.4095 11.8123 10.4089C12.1148 10.3891 12.4234 10.3636 12.7346 10.333C12.7632 10.3302 12.7913 10.3275 12.8199 10.3245C13.1352 10.2925 13.4524 10.255 13.7688 10.2108C13.7843 10.2086 13.7995 10.2061 13.815 10.2039C14.1235 10.1601 14.4304 10.1099 14.7331 10.0534C14.7607 10.0482 14.788 10.0433 14.8155 10.038C15.1237 9.97913 15.4268 9.91357 15.7215 9.84027C15.7404 9.83557 15.7587 9.83051 15.7775 9.82574C16.0637 9.75339 16.3409 9.67365 16.6072 9.58655C16.6294 9.57932 16.6517 9.57236 16.6737 9.56503C16.9451 9.4743 17.204 9.37561 17.4472 9.26822C17.4545 9.26498 17.4632 9.26251 17.4705 9.25928V15.912C17.4168 15.9851 17.234 16.1576 16.813 16.3613C15.407 17.0459 12.7852 17.4707 9.97046 17.4707C8.22754 17.4707 6.57104 17.313 5.18018 17.0151C4.63794 16.896 4.1084 17.2427 3.99268 17.7832C3.87695 18.3232 4.22095 18.8545 4.76074 18.9707C6.28735 19.2979 8.08887 19.4707 9.97046 19.4707C12.9861 19.4707 15.7617 19.0205 17.4705 18.2612V20.4707V24.9067Z" fill="url(#paint1_linear_254_2458)"/>
<path d="M23.2205 18.4707H24.4705C25.0227 18.4707 25.4705 18.0229 25.4705 17.4707C25.4705 16.9185 25.0227 16.4707 24.4705 16.4707C24.4705 15.9185 24.0227 15.4707 23.4705 15.4707C22.9182 15.4707 22.4705 15.9185 22.4705 16.4707V16.6089C21.5994 16.9195 20.9705 17.7442 20.9705 18.7207C20.9705 19.9614 21.9797 20.9707 23.2205 20.9707H23.7205C23.8584 20.9707 23.9705 21.083 23.9705 21.2207C23.9705 21.3584 23.8584 21.4707 23.7205 21.4707H22.4705C21.9182 21.4707 21.4705 21.9185 21.4705 22.4707C21.4705 23.0229 21.9182 23.4707 22.4705 23.4707C22.4705 24.0229 22.9182 24.4707 23.4705 24.4707C24.0227 24.4707 24.4705 24.0229 24.4705 23.4707V23.3325C25.3416 23.0219 25.9705 22.1972 25.9705 21.2207C25.9705 19.98 24.9612 18.9707 23.7205 18.9707H23.2205C23.0825 18.9707 22.9705 18.8584 22.9705 18.7207C22.9705 18.583 23.0825 18.4707 23.2205 18.4707Z" fill="url(#paint2_linear_254_2458)"/>
<defs>
<linearGradient id="paint0_linear_254_2458" x1="20.9114" y1="24.74" x2="31.5336" y2="24.6847" gradientUnits="userSpaceOnUse">
<stop stop-color="#FF6060"/>
<stop offset="1" stop-color="#FE124A"/>
</linearGradient>
<linearGradient id="paint1_linear_254_2458" x1="0.470459" y1="22.8786" x2="19.478" y2="22.7586" gradientUnits="userSpaceOnUse">
<stop stop-color="#FF6060"/>
<stop offset="1" stop-color="#FE124A"/>
</linearGradient>
<linearGradient id="paint2_linear_254_2458" x1="20.9705" y1="22.4575" x2="25.9725" y2="22.4345" gradientUnits="userSpaceOnUse">
<stop stop-color="#FF6060"/>
<stop offset="1" stop-color="#FE124A"/>
</linearGradient>
</defs>
</svg>
