<svg width="32" height="32" viewBox="0 0 32 32" fill="none" xmlns="http://www.w3.org/2000/svg">
<path d="M10 12C10 13.9297 11.5701 15.5 13.5 15.5C15.4299 15.5 17 13.9297 17 12C17 10.0703 15.4299 8.5 13.5 8.5C11.5701 8.5 10 10.0703 10 12ZM15 12C15 12.8271 14.3271 13.5 13.5 13.5C12.6729 13.5 12 12.8271 12 12C12 11.1729 12.6729 10.5 13.5 10.5C14.3271 10.5 15 11.1729 15 12Z" fill="url(#paint0_linear_254_2452)"/>
<path d="M25.4541 19.2172C24.9263 19.059 24.3669 19.3569 24.2078 19.8857C24.0481 20.4145 24.3472 20.9726 24.876 21.1323C26.1265 21.5097 27 22.6889 27 23.9999V28.9999C27 29.2758 26.7756 29.4999 26.5 29.4999H17.5C17.2244 29.4999 17 29.2758 17 28.9999V23.9999C17 22.6889 17.8735 21.5097 19.124 21.1323C19.6528 20.9726 19.9519 20.4145 19.7922 19.8857C19.6323 19.3569 19.0737 19.059 18.5459 19.2172C16.4583 19.8476 15 21.8144 15 23.9999V28.9999C15 30.3784 16.1216 31.4999 17.5 31.4999H26.5C27.8784 31.4999 29 30.3784 29 28.9999V23.9999C29 21.8144 27.5417 19.8476 25.4541 19.2172Z" fill="url(#paint1_linear_254_2452)"/>
<path d="M5 11C5 6.31299 8.81299 2.5 13.5 2.5C17.0081 2.5 20.1106 4.60742 21.4045 7.86865C21.6079 8.38232 22.1895 8.63232 22.7026 8.42969C23.2161 8.22607 23.4673 7.64453 23.2634 7.13135C21.6655 3.10303 17.833 0.5 13.5 0.5C7.71021 0.5 3 5.21045 3 11C3 21.8057 12.4116 30.8462 12.8123 31.2261C13.0056 31.4092 13.2529 31.5 13.4998 31.5C13.7649 31.5 14.0293 31.3955 14.2261 31.1875C14.6057 30.7866 14.5886 30.1538 14.1877 29.7739C14.0959 29.687 5 20.9546 5 11Z" fill="url(#paint2_linear_254_2452)"/>
<path d="M18 14V14.5C18 16.7056 19.7944 18.5 22 18.5C24.2056 18.5 26 16.7056 26 14.5V14C26 11.7944 24.2056 10 22 10C19.7944 10 18 11.7944 18 14ZM24 14V14.5C24 15.603 23.1028 16.5 22 16.5C20.8972 16.5 20 15.603 20 14.5V14C20 12.897 20.8972 12 22 12C23.1028 12 24 12.897 24 14Z" fill="url(#paint3_linear_254_2452)"/>
<path d="M22.5 27C22.5 27.5522 22.9478 28 23.5 28H24C24.5522 28 25 27.5522 25 27C25 26.4478 24.5522 26 24 26H23.5C22.9478 26 22.5 26.4478 22.5 27Z" fill="url(#paint4_linear_254_2452)"/>
<defs>
<linearGradient id="paint0_linear_254_2452" x1="10" y1="13.9342" x2="17.0026" y2="13.8761" gradientUnits="userSpaceOnUse">
<stop stop-color="#FF6060"/>
<stop offset="1" stop-color="#FE124A"/>
</linearGradient>
<linearGradient id="paint1_linear_254_2452" x1="15" y1="28.743" x2="29.0049" y2="28.6109" gradientUnits="userSpaceOnUse">
<stop stop-color="#FF6060"/>
<stop offset="1" stop-color="#FE124A"/>
</linearGradient>
<linearGradient id="paint2_linear_254_2452" x1="3" y1="24.5658" x2="23.3425" y2="24.455" gradientUnits="userSpaceOnUse">
<stop stop-color="#FF6060"/>
<stop offset="1" stop-color="#FE124A"/>
</linearGradient>
<linearGradient id="paint3_linear_254_2452" x1="18" y1="16.5987" x2="26.003" y2="16.5361" gradientUnits="userSpaceOnUse">
<stop stop-color="#FF6060"/>
<stop offset="1" stop-color="#FE124A"/>
</linearGradient>
<linearGradient id="paint4_linear_254_2452" x1="22.5" y1="27.5526" x2="25.0008" y2="27.5267" gradientUnits="userSpaceOnUse">
<stop stop-color="#FF6060"/>
<stop offset="1" stop-color="#FE124A"/>
</linearGradient>
</defs>
</svg>
