<svg width="33" height="32" viewBox="0 0 33 32" fill="none" xmlns="http://www.w3.org/2000/svg">
<path d="M29 0.5H4C2.3457 0.5 1 1.8457 1 3.5V30.5C1 31.0522 1.44775 31.5 2 31.5C2.55225 31.5 3 31.0522 3 30.5V3.5C3 2.94873 3.44873 2.5 4 2.5H29C29.5513 2.5 30 2.94873 30 3.5V28.5C30 29.0513 29.5513 29.5 29 29.5H5.5C4.94775 29.5 4.5 29.9478 4.5 30.5C4.5 31.0522 4.94775 31.5 5.5 31.5H29C30.6543 31.5 32 30.1543 32 28.5V3.5C32 1.8457 30.6543 0.5 29 0.5Z" fill="url(#paint0_linear_254_2441)"/>
<path d="M16.5 4.5C12.6401 4.5 9.5 7.64014 9.5 11.5V13.5H8.5C6.8457 13.5 5.5 14.8457 5.5 16.5V17.5C5.5 19.1543 6.8457 20.5 8.5 20.5H10.5C11.0522 20.5 11.5 20.0522 11.5 19.5V18.5V14.5V11.5C11.5 8.74316 13.7432 6.5 16.5 6.5C19.2568 6.5 21.5 8.74316 21.5 11.5V14.5V18.5V19.5V21.6787C21.5 22.7524 20.9209 23.7505 19.9883 24.2837L18.5039 25.1318C18.0244 25.4058 17.8579 26.0166 18.1318 26.4961C18.3164 26.8193 18.6538 27 19.001 27C19.1689 27 19.3398 26.9575 19.4961 26.8682L20.9805 26.02C22.5347 25.1318 23.5 23.4683 23.5 21.6787V20.5H24.5C26.1543 20.5 27.5 19.1543 27.5 17.5V16.5C27.5 14.8457 26.1543 13.5 24.5 13.5H23.5V11.5C23.5 7.64014 20.3599 4.5 16.5 4.5ZM8.5 18.5C7.94873 18.5 7.5 18.0513 7.5 17.5V16.5C7.5 15.9487 7.94873 15.5 8.5 15.5H9.5V18.5H8.5ZM24.5 15.5C25.0513 15.5 25.5 15.9487 25.5 16.5V17.5C25.5 18.0513 25.0513 18.5 24.5 18.5H23.5V15.5H24.5Z" fill="url(#paint1_linear_254_2441)"/>
<defs>
<linearGradient id="paint0_linear_254_2441" x1="1" y1="24.5658" x2="32.0114" y2="24.3083" gradientUnits="userSpaceOnUse">
<stop stop-color="#FF6060"/>
<stop offset="1" stop-color="#FE124A"/>
</linearGradient>
<linearGradient id="paint1_linear_254_2441" x1="5.5" y1="21.9671" x2="27.5082" y2="21.7884" gradientUnits="userSpaceOnUse">
<stop stop-color="#FF6060"/>
<stop offset="1" stop-color="#FE124A"/>
</linearGradient>
</defs>
</svg>
