<svg width="1720" height="695" viewBox="0 0 1720 695" fill="none" xmlns="http://www.w3.org/2000/svg">
<path opacity="0.4" d="M0 586C275.054 427.996 476 504 593 421C640.05 387.623 645.5 266.5 747.5 219.5C849.5 172.5 998.229 254.172 1113.5 219.5C1281.4 168.999 1362.66 -61.5152 1636 19.4867" stroke="url(#paint0_linear_314_1888)" stroke-width="4" stroke-linecap="round"/>
<circle cx="594" cy="421" r="6" fill="url(#paint1_linear_314_1888)"/>
<circle cx="594" cy="421" r="13" stroke="url(#paint2_linear_314_1888)" stroke-opacity="0.1" stroke-width="14"/>
<path d="M441.28 601.72C433.067 612.28 421.44 617.56 406.4 617.56C391.36 617.56 379.733 612.28 371.52 601.72C363.307 591.053 359.2 576.813 359.2 559C359.2 541.187 363.307 527 371.52 516.44C379.733 505.773 391.36 500.44 406.4 500.44C421.44 500.44 433.067 505.773 441.28 516.44C449.493 527 453.6 541.187 453.6 559C453.6 576.813 449.493 591.053 441.28 601.72ZM391.2 559C391.2 577.347 396.267 586.52 406.4 586.52C416.533 586.52 421.6 577.347 421.6 559C421.6 540.653 416.533 531.48 406.4 531.48C396.267 531.48 391.2 540.653 391.2 559ZM486.739 503H513.939V615H481.939V536.44L462.579 541.08L455.219 514.36L486.739 503Z" fill="url(#paint3_linear_314_1888)"/>
<path d="M213.92 638.2V655H212.24V639.784H203.6V655H201.92V638.2H213.92ZM227.58 653.488C226.364 654.688 224.876 655.288 223.116 655.288C221.356 655.288 219.86 654.688 218.628 653.488C217.412 652.272 216.804 650.776 216.804 649C216.804 647.224 217.412 645.736 218.628 644.536C219.86 643.32 221.356 642.712 223.116 642.712C224.876 642.712 226.364 643.32 227.58 644.536C228.812 645.736 229.428 647.224 229.428 649C229.428 650.776 228.812 652.272 227.58 653.488ZM219.756 652.384C220.668 653.296 221.788 653.752 223.116 653.752C224.444 653.752 225.564 653.296 226.476 652.384C227.388 651.456 227.844 650.328 227.844 649C227.844 647.672 227.388 646.552 226.476 645.64C225.564 644.712 224.444 644.248 223.116 644.248C221.788 644.248 220.668 644.712 219.756 645.64C218.844 646.552 218.388 647.672 218.388 649C218.388 650.328 218.844 651.456 219.756 652.384ZM241.69 653.464H243.37V658.216H241.786V655H231.994V658.216H230.41V653.464H231.874C232.69 652.392 233.098 650.88 233.098 648.928V643H241.69V653.464ZM233.794 653.464H240.106V644.536H234.682V648.928C234.682 650.768 234.386 652.28 233.794 653.464ZM255.617 643H257.201V655H255.617V652.648C254.513 654.408 252.897 655.288 250.769 655.288C249.057 655.288 247.593 654.68 246.377 653.464C245.177 652.248 244.577 650.76 244.577 649C244.577 647.24 245.177 645.752 246.377 644.536C247.593 643.32 249.057 642.712 250.769 642.712C252.897 642.712 254.513 643.592 255.617 645.352V643ZM247.529 652.384C248.441 653.296 249.561 653.752 250.889 653.752C252.217 653.752 253.337 653.296 254.249 652.384C255.161 651.456 255.617 650.328 255.617 649C255.617 647.672 255.161 646.552 254.249 645.64C253.337 644.712 252.217 644.248 250.889 644.248C249.561 644.248 248.441 644.712 247.529 645.64C246.617 646.552 246.161 647.672 246.161 649C246.161 650.328 246.617 651.456 247.529 652.384ZM269.195 643V644.536H264.947V655H263.363V644.536H259.115V643H269.195ZM275.997 647.56C277.117 647.56 278.061 647.912 278.829 648.616C279.613 649.304 280.005 650.192 280.005 651.28C280.005 652.368 279.613 653.264 278.829 653.968C278.061 654.656 277.117 655 275.997 655H271.125V643H272.709V647.56H275.997ZM275.997 653.464C276.669 653.464 277.237 653.264 277.701 652.864C278.181 652.464 278.421 651.936 278.421 651.28C278.421 650.624 278.181 650.096 277.701 649.696C277.237 649.296 276.669 649.096 275.997 649.096H272.709V653.464H275.997ZM294.591 648.832C295.983 649.36 296.679 650.32 296.679 651.712C296.679 652.704 296.287 653.552 295.503 654.256C294.735 654.944 293.631 655.288 292.191 655.288C289.775 655.288 288.191 654.328 287.439 652.408L288.783 651.616C289.279 653.04 290.415 653.752 292.191 653.752C293.119 653.752 293.831 653.552 294.327 653.152C294.839 652.752 295.095 652.24 295.095 651.616C295.095 651.056 294.887 650.6 294.471 650.248C294.055 649.896 293.495 649.72 292.791 649.72H291.039V648.184H292.311C292.999 648.184 293.535 648.016 293.919 647.68C294.319 647.328 294.519 646.848 294.519 646.24C294.519 645.664 294.287 645.192 293.823 644.824C293.359 644.44 292.735 644.248 291.951 644.248C290.447 644.248 289.447 644.848 288.951 646.048L287.631 645.28C288.431 643.568 289.871 642.712 291.951 642.712C293.215 642.712 294.223 643.048 294.975 643.72C295.727 644.376 296.103 645.184 296.103 646.144C296.103 647.376 295.599 648.272 294.591 648.832ZM309.406 643H310.99V655H309.406V652.648C308.302 654.408 306.686 655.288 304.558 655.288C302.846 655.288 301.382 654.68 300.166 653.464C298.966 652.248 298.366 650.76 298.366 649C298.366 647.24 298.966 645.752 300.166 644.536C301.382 643.32 302.846 642.712 304.558 642.712C306.686 642.712 308.302 643.592 309.406 645.352V643ZM301.318 652.384C302.23 653.296 303.35 653.752 304.678 653.752C306.006 653.752 307.126 653.296 308.038 652.384C308.95 651.456 309.406 650.328 309.406 649C309.406 647.672 308.95 646.552 308.038 645.64C307.126 644.712 306.006 644.248 304.678 644.248C303.35 644.248 302.23 644.712 301.318 645.64C300.406 646.552 299.95 647.672 299.95 649C299.95 650.328 300.406 651.456 301.318 652.384ZM322.984 643V655H321.4V650.392H319.336L315.64 655H313.624L317.416 650.344C316.456 650.2 315.664 649.8 315.04 649.144C314.416 648.488 314.104 647.68 314.104 646.72C314.104 645.632 314.488 644.744 315.256 644.056C316.04 643.352 316.992 643 318.112 643H322.984ZM318.112 648.904H321.4V644.536H318.112C317.44 644.536 316.864 644.736 316.384 645.136C315.92 645.536 315.688 646.064 315.688 646.72C315.688 647.376 315.92 647.904 316.384 648.304C316.864 648.704 317.44 648.904 318.112 648.904ZM333.976 648.832C335.288 649.312 335.944 650.248 335.944 651.64C335.944 652.616 335.616 653.424 334.96 654.064C334.32 654.688 333.392 655 332.176 655H326.344V643H331.696C332.864 643 333.768 643.304 334.408 643.912C335.048 644.504 335.368 645.272 335.368 646.216C335.368 647.416 334.904 648.288 333.976 648.832ZM331.696 644.536H327.928V648.184H331.696C333.088 648.184 333.784 647.56 333.784 646.312C333.784 645.752 333.6 645.32 333.232 645.016C332.88 644.696 332.368 644.536 331.696 644.536ZM332.176 653.464C332.88 653.464 333.416 653.296 333.784 652.96C334.168 652.624 334.36 652.152 334.36 651.544C334.36 650.984 334.168 650.544 333.784 650.224C333.416 649.888 332.88 649.72 332.176 649.72H327.928V653.464H332.176ZM348.04 655H345.928L339.928 649.216V655H338.344V643H339.928V648.304L345.64 643H347.8L341.608 648.76L348.04 655ZM358.375 643H360.055L354.919 656.104C354.455 657.288 353.791 658.216 352.927 658.888C352.079 659.576 351.127 659.88 350.071 659.8V658.312C351.511 658.472 352.607 657.64 353.359 655.816L353.671 655.072L348.295 643H349.975L354.487 653.056L358.375 643ZM376.705 643H378.049V655H376.465V645.76L369.313 655H367.969V643H369.553V652.24L376.705 643ZM211.736 685.488C210.52 686.688 209.032 687.288 207.272 687.288C205.512 687.288 204.016 686.688 202.784 685.488C201.568 684.272 200.96 682.776 200.96 681C200.96 679.224 201.568 677.736 202.784 676.536C204.016 675.32 205.512 674.712 207.272 674.712C209.032 674.712 210.52 675.32 211.736 676.536C212.968 677.736 213.584 679.224 213.584 681C213.584 682.776 212.968 684.272 211.736 685.488ZM203.912 684.384C204.824 685.296 205.944 685.752 207.272 685.752C208.6 685.752 209.72 685.296 210.632 684.384C211.544 683.456 212 682.328 212 681C212 679.672 211.544 678.552 210.632 677.64C209.72 676.712 208.6 676.248 207.272 676.248C205.944 676.248 204.824 676.712 203.912 677.64C203 678.552 202.544 679.672 202.544 681C202.544 682.328 203 683.456 203.912 684.384ZM226.315 675V687H224.731V676.536H217.819V687H216.235V675H226.315ZM236.096 674.712C237.808 674.712 239.264 675.32 240.464 676.536C241.68 677.752 242.288 679.24 242.288 681C242.288 682.76 241.68 684.248 240.464 685.464C239.264 686.68 237.808 687.288 236.096 687.288C233.968 687.288 232.352 686.408 231.248 684.648V691.8H229.664V675H231.248V677.352C232.352 675.592 233.968 674.712 236.096 674.712ZM232.616 684.384C233.528 685.296 234.648 685.752 235.976 685.752C237.304 685.752 238.424 685.296 239.336 684.384C240.248 683.456 240.704 682.328 240.704 681C240.704 679.672 240.248 678.552 239.336 677.64C238.424 676.712 237.304 676.248 235.976 676.248C234.648 676.248 233.528 676.712 232.616 677.64C231.704 678.552 231.248 679.672 231.248 681C231.248 682.328 231.704 683.456 232.616 684.384ZM250.466 674.712C252.242 674.712 253.674 675.344 254.762 676.608C255.866 677.856 256.418 679.336 256.418 681.048C256.418 681.224 256.402 681.472 256.37 681.792H245.834C245.994 683.008 246.506 683.976 247.37 684.696C248.25 685.4 249.33 685.752 250.61 685.752C251.522 685.752 252.306 685.568 252.962 685.2C253.634 684.816 254.138 684.32 254.474 683.712L255.866 684.528C255.338 685.376 254.618 686.048 253.706 686.544C252.794 687.04 251.754 687.288 250.586 687.288C248.698 687.288 247.162 686.696 245.978 685.512C244.794 684.328 244.202 682.824 244.202 681C244.202 679.208 244.786 677.712 245.954 676.512C247.122 675.312 248.626 674.712 250.466 674.712ZM250.466 676.248C249.218 676.248 248.17 676.624 247.322 677.376C246.49 678.112 245.994 679.072 245.834 680.256H254.786C254.626 678.992 254.138 678.008 253.322 677.304C252.506 676.6 251.554 676.248 250.466 676.248ZM268.549 685.464H270.229V690.216H268.645V687H258.853V690.216H257.269V685.464H258.733C259.549 684.392 259.957 682.88 259.957 680.928V675H268.549V685.464ZM260.653 685.464H266.965V676.536H261.541V680.928C261.541 682.768 261.245 684.28 260.653 685.464ZM277.701 674.712C279.477 674.712 280.909 675.344 281.997 676.608C283.101 677.856 283.653 679.336 283.653 681.048C283.653 681.224 283.637 681.472 283.605 681.792H273.069C273.229 683.008 273.741 683.976 274.605 684.696C275.485 685.4 276.565 685.752 277.845 685.752C278.757 685.752 279.541 685.568 280.197 685.2C280.869 684.816 281.373 684.32 281.709 683.712L283.101 684.528C282.573 685.376 281.853 686.048 280.941 686.544C280.029 687.04 278.989 687.288 277.821 687.288C275.933 687.288 274.397 686.696 273.213 685.512C272.029 684.328 271.437 682.824 271.437 681C271.437 679.208 272.021 677.712 273.189 676.512C274.357 675.312 275.861 674.712 277.701 674.712ZM277.701 676.248C276.453 676.248 275.405 676.624 274.557 677.376C273.725 678.112 273.229 679.072 273.069 680.256H282.021C281.861 678.992 281.373 678.008 280.557 677.304C279.741 676.6 278.789 676.248 277.701 676.248ZM295.543 675V687H293.959V676.536H288.535V681.888C288.535 683.888 288.151 685.264 287.383 686.016C286.631 686.768 285.591 687.096 284.263 687V685.512C285.175 685.608 285.847 685.392 286.279 684.864C286.727 684.336 286.951 683.344 286.951 681.888V675H295.543ZM307.635 675H308.979V687H307.395V677.76L300.243 687H298.899V675H300.483V684.24L307.635 675ZM320.968 675V676.536H316.72V687H315.136V676.536H310.888V675H320.968ZM327.771 679.56C328.891 679.56 329.835 679.912 330.603 680.616C331.387 681.304 331.779 682.192 331.779 683.28C331.779 684.368 331.387 685.264 330.603 685.968C329.835 686.656 328.891 687 327.771 687H322.899V675H324.483V679.56H327.771ZM327.771 685.464C328.443 685.464 329.011 685.264 329.475 684.864C329.955 684.464 330.195 683.936 330.195 683.28C330.195 682.624 329.955 682.096 329.475 681.696C329.011 681.296 328.443 681.096 327.771 681.096H324.483V685.464H327.771ZM347.852 675V676.536H341.756V687H340.172V675H347.852ZM356.214 674.712C357.926 674.712 359.382 675.32 360.582 676.536C361.798 677.752 362.406 679.24 362.406 681C362.406 682.76 361.798 684.248 360.582 685.464C359.382 686.68 357.926 687.288 356.214 687.288C354.086 687.288 352.47 686.408 351.366 684.648V691.8H349.782V675H351.366V677.352C352.47 675.592 354.086 674.712 356.214 674.712ZM352.734 684.384C353.646 685.296 354.766 685.752 356.094 685.752C357.422 685.752 358.542 685.296 359.454 684.384C360.366 683.456 360.822 682.328 360.822 681C360.822 679.672 360.366 678.552 359.454 677.64C358.542 676.712 357.422 676.248 356.094 676.248C354.766 676.248 353.646 676.712 352.734 677.64C351.822 678.552 351.366 679.672 351.366 681C351.366 682.328 351.822 683.456 352.734 684.384ZM375.359 675H376.943V687H375.359V684.648C374.255 686.408 372.639 687.288 370.511 687.288C368.799 687.288 367.335 686.68 366.119 685.464C364.919 684.248 364.319 682.76 364.319 681C364.319 679.24 364.919 677.752 366.119 676.536C367.335 675.32 368.799 674.712 370.511 674.712C372.639 674.712 374.255 675.592 375.359 677.352V675ZM367.271 684.384C368.183 685.296 369.303 685.752 370.631 685.752C371.959 685.752 373.079 685.296 373.991 684.384C374.903 683.456 375.359 682.328 375.359 681C375.359 679.672 374.903 678.552 373.991 677.64C373.079 676.712 371.959 676.248 370.631 676.248C369.303 676.248 368.183 676.712 367.271 677.64C366.359 678.552 365.903 679.672 365.903 681C365.903 682.328 366.359 683.456 367.271 684.384ZM388.793 675H390.377V687H388.793V681.768H381.881V687H380.297V675H381.881V680.232H388.793V675ZM402.463 675H403.807V687H402.223V677.76L395.071 687H393.727V675H395.311V684.24L402.463 675ZM416.997 685.464H418.917V690.216H417.333V687H407.157V675H408.741V685.464H415.413V675H416.997V685.464ZM426.185 679.56C427.305 679.56 428.249 679.912 429.017 680.616C429.801 681.304 430.193 682.192 430.193 683.28C430.193 684.368 429.801 685.264 429.017 685.968C428.249 686.656 427.305 687 426.185 687H421.313V675H422.897V679.56H426.185ZM431.873 675H433.457V687H431.873V675ZM426.185 685.464C426.857 685.464 427.425 685.264 427.889 684.864C428.369 684.464 428.609 683.936 428.609 683.28C428.609 682.624 428.369 682.096 427.889 681.696C427.425 681.296 426.857 681.096 426.185 681.096H422.897V685.464H426.185ZM452.908 675V687H451.324V676.536H444.412V687H442.828V675H452.908ZM462.69 674.712C464.402 674.712 465.858 675.32 467.058 676.536C468.274 677.752 468.882 679.24 468.882 681C468.882 682.76 468.274 684.248 467.058 685.464C465.858 686.68 464.402 687.288 462.69 687.288C460.562 687.288 458.946 686.408 457.842 684.648V691.8H456.258V675H457.842V677.352C458.946 675.592 460.562 674.712 462.69 674.712ZM459.21 684.384C460.122 685.296 461.242 685.752 462.57 685.752C463.898 685.752 465.018 685.296 465.93 684.384C466.842 683.456 467.298 682.328 467.298 681C467.298 679.672 466.842 678.552 465.93 677.64C465.018 676.712 463.898 676.248 462.57 676.248C461.242 676.248 460.122 676.712 459.21 677.64C458.298 678.552 457.842 679.672 457.842 681C457.842 682.328 458.298 683.456 459.21 684.384ZM481.572 685.488C480.356 686.688 478.868 687.288 477.108 687.288C475.348 687.288 473.852 686.688 472.62 685.488C471.404 684.272 470.796 682.776 470.796 681C470.796 679.224 471.404 677.736 472.62 676.536C473.852 675.32 475.348 674.712 477.108 674.712C478.868 674.712 480.356 675.32 481.572 676.536C482.804 677.736 483.42 679.224 483.42 681C483.42 682.776 482.804 684.272 481.572 685.488ZM473.748 684.384C474.66 685.296 475.78 685.752 477.108 685.752C478.436 685.752 479.556 685.296 480.468 684.384C481.38 683.456 481.836 682.328 481.836 681C481.836 679.672 481.38 678.552 480.468 677.64C479.556 676.712 478.436 676.248 477.108 676.248C475.78 676.248 474.66 676.712 473.748 677.64C472.836 678.552 472.38 679.672 472.38 681C472.38 682.328 472.836 683.456 473.748 684.384ZM491.615 674.712C493.391 674.712 494.823 675.344 495.911 676.608C497.015 677.856 497.567 679.336 497.567 681.048C497.567 681.224 497.551 681.472 497.519 681.792H486.983C487.143 683.008 487.655 683.976 488.519 684.696C489.399 685.4 490.479 685.752 491.759 685.752C492.671 685.752 493.455 685.568 494.111 685.2C494.783 684.816 495.287 684.32 495.623 683.712L497.015 684.528C496.487 685.376 495.767 686.048 494.855 686.544C493.943 687.04 492.903 687.288 491.735 687.288C489.847 687.288 488.311 686.696 487.127 685.512C485.943 684.328 485.351 682.824 485.351 681C485.351 679.208 485.935 677.712 487.103 676.512C488.271 675.312 489.775 674.712 491.615 674.712ZM491.615 676.248C490.367 676.248 489.319 676.624 488.471 677.376C487.639 678.112 487.143 679.072 486.983 680.256H495.935C495.775 678.992 495.287 678.008 494.471 677.304C493.655 676.6 492.703 676.248 491.615 676.248ZM509.782 687H507.67L501.67 681.216V687H500.086V675H501.67V680.304L507.382 675H509.542L503.35 680.76L509.782 687ZM520.586 675V676.536H516.338V687H514.754V676.536H510.506V675H520.586ZM532.367 675H533.951V687H532.367V684.648C531.263 686.408 529.647 687.288 527.519 687.288C525.807 687.288 524.343 686.68 523.127 685.464C521.927 684.248 521.327 682.76 521.327 681C521.327 679.24 521.927 677.752 523.127 676.536C524.343 675.32 525.807 674.712 527.519 674.712C529.647 674.712 531.263 675.592 532.367 677.352V675ZM524.279 684.384C525.191 685.296 526.311 685.752 527.639 685.752C528.967 685.752 530.087 685.296 530.999 684.384C531.911 683.456 532.367 682.328 532.367 681C532.367 679.672 531.911 678.552 530.999 677.64C530.087 676.712 528.967 676.248 527.639 676.248C526.311 676.248 525.191 676.712 524.279 677.64C523.367 678.552 522.911 679.672 522.911 681C522.911 682.328 523.367 683.456 524.279 684.384Z" fill="#424242"/>
<circle cx="1114" cy="221" r="6" fill="url(#paint4_linear_314_1888)"/>
<circle cx="1114" cy="221" r="13" stroke="url(#paint5_linear_314_1888)" stroke-opacity="0.1" stroke-width="14"/>
<path d="M951.78 391.72C943.567 402.28 931.94 407.56 916.9 407.56C901.86 407.56 890.233 402.28 882.02 391.72C873.807 381.053 869.7 366.813 869.7 349C869.7 331.187 873.807 317 882.02 306.44C890.233 295.773 901.86 290.44 916.9 290.44C931.94 290.44 943.567 295.773 951.78 306.44C959.993 317 964.1 331.187 964.1 349C964.1 366.813 959.993 381.053 951.78 391.72ZM901.7 349C901.7 367.347 906.767 376.52 916.9 376.52C927.033 376.52 932.1 367.347 932.1 349C932.1 330.653 927.033 321.48 916.9 321.48C906.767 321.48 901.7 330.653 901.7 349ZM968.919 405V381.64L1005.4 342.12C1006.04 341.373 1006.95 340.36 1008.12 339.08C1009.4 337.8 1010.25 336.893 1010.68 336.36C1011.21 335.827 1011.85 335.133 1012.6 334.28C1013.45 333.32 1013.99 332.573 1014.2 332.04C1014.52 331.4 1014.79 330.76 1015 330.12C1015.32 329.373 1015.48 328.627 1015.48 327.88C1015.48 326.067 1014.84 324.573 1013.56 323.4C1012.28 322.12 1010.41 321.48 1007.96 321.48C1001.99 321.48 997.559 325.267 994.679 332.84L966.519 317.48C970.252 308.627 975.745 301.907 982.999 297.32C990.359 292.733 998.519 290.44 1007.48 290.44C1018.47 290.44 1027.85 293.587 1035.64 299.88C1043.53 306.067 1047.48 314.653 1047.48 325.64C1047.48 332.36 1045.99 338.227 1043 343.24C1040.12 348.253 1035.53 354.28 1029.24 361.32L1017.88 373.96H1049.88V405H968.919Z" fill="url(#paint6_linear_314_1888)"/>
<path d="M733.68 435H731.472L723.6 426.864V435H721.92V418.2H723.6V425.88L731.232 418.2H733.44L725.376 426.36L733.68 435ZM743.515 423H745.195L740.059 436.104C739.595 437.288 738.931 438.216 738.067 438.888C737.219 439.576 736.267 439.88 735.211 439.8V438.312C736.651 438.472 737.747 437.64 738.499 435.816L738.811 435.072L733.435 423H735.115L739.627 433.056L743.515 423ZM757.19 423V435H755.606V424.536H748.694V435H747.11V423H757.19ZM769.275 423H770.619V435H769.035V425.76L761.883 435H760.539V423H762.123V432.24L769.275 423ZM782.609 423V424.536H778.361V435H776.777V424.536H772.529V423H782.609ZM789.411 427.56C790.531 427.56 791.475 427.912 792.243 428.616C793.027 429.304 793.419 430.192 793.419 431.28C793.419 432.368 793.027 433.264 792.243 433.968C791.475 434.656 790.531 435 789.411 435H784.539V423H786.123V427.56H789.411ZM789.411 433.464C790.083 433.464 790.651 433.264 791.115 432.864C791.595 432.464 791.835 431.936 791.835 431.28C791.835 430.624 791.595 430.096 791.115 429.696C790.651 429.296 790.083 429.096 789.411 429.096H786.123V433.464H789.411ZM811.653 423V435H810.069V424.536H804.645V429.888C804.645 431.888 804.261 433.264 803.493 434.016C802.741 434.768 801.701 435.096 800.373 435V433.512C801.285 433.608 801.957 433.392 802.389 432.864C802.837 432.336 803.061 431.344 803.061 429.888V423H811.653ZM823.744 423H825.088V435H823.504V425.76L816.352 435H815.008V423H816.592V432.24L823.744 423ZM838.278 433.464H840.198V438.216H838.614V435H828.438V423H830.022V433.464H836.694V423H838.278V433.464ZM847.669 422.712C849.445 422.712 850.877 423.344 851.965 424.608C853.069 425.856 853.621 427.336 853.621 429.048C853.621 429.224 853.605 429.472 853.573 429.792H843.037C843.197 431.008 843.709 431.976 844.573 432.696C845.453 433.4 846.533 433.752 847.813 433.752C848.725 433.752 849.509 433.568 850.165 433.2C850.837 432.816 851.341 432.32 851.677 431.712L853.069 432.528C852.541 433.376 851.821 434.048 850.909 434.544C849.997 435.04 848.957 435.288 847.789 435.288C845.901 435.288 844.365 434.696 843.181 433.512C841.997 432.328 841.405 430.824 841.405 429C841.405 427.208 841.989 425.712 843.157 424.512C844.325 423.312 845.829 422.712 847.669 422.712ZM847.669 424.248C846.421 424.248 845.373 424.624 844.525 425.376C843.693 426.112 843.197 427.072 843.037 428.256H851.989C851.829 426.992 851.341 426.008 850.525 425.304C849.709 424.6 848.757 424.248 847.669 424.248ZM864.637 423H866.221V435H864.637V429.768H857.725V435H856.141V423H857.725V428.232H864.637V423ZM875.763 428.832C877.155 429.36 877.851 430.32 877.851 431.712C877.851 432.704 877.459 433.552 876.675 434.256C875.907 434.944 874.803 435.288 873.363 435.288C870.947 435.288 869.363 434.328 868.611 432.408L869.955 431.616C870.451 433.04 871.587 433.752 873.363 433.752C874.291 433.752 875.003 433.552 875.499 433.152C876.011 432.752 876.267 432.24 876.267 431.616C876.267 431.056 876.059 430.6 875.643 430.248C875.227 429.896 874.667 429.72 873.963 429.72H872.211V428.184H873.483C874.171 428.184 874.707 428.016 875.091 427.68C875.491 427.328 875.691 426.848 875.691 426.24C875.691 425.664 875.459 425.192 874.995 424.824C874.531 424.44 873.907 424.248 873.123 424.248C871.619 424.248 870.619 424.848 870.123 426.048L868.803 425.28C869.603 423.568 871.043 422.712 873.123 422.712C874.387 422.712 875.395 423.048 876.147 423.72C876.899 424.376 877.275 425.184 877.275 426.144C877.275 427.376 876.771 428.272 875.763 428.832ZM888.994 423H890.338V435H888.754V425.76L881.602 435H880.258V423H881.842V432.24L888.994 423ZM903.936 422.712C905.696 422.712 907.184 423.32 908.4 424.536C909.632 425.736 910.248 427.224 910.248 429C910.248 430.776 909.632 432.272 908.4 433.488C907.184 434.688 905.696 435.288 903.936 435.288C902.32 435.288 900.928 434.768 899.76 433.728C898.608 432.672 897.944 431.352 897.768 429.768H895.272V435H893.688V423H895.272V428.232H897.768C897.944 426.648 898.608 425.336 899.76 424.296C900.928 423.24 902.32 422.712 903.936 422.712ZM900.576 432.384C901.488 433.296 902.608 433.752 903.936 433.752C905.264 433.752 906.384 433.296 907.296 432.384C908.208 431.456 908.664 430.328 908.664 429C908.664 427.672 908.208 426.552 907.296 425.64C906.384 424.712 905.264 424.248 903.936 424.248C902.608 424.248 901.488 424.712 900.576 425.64C899.664 426.552 899.208 427.672 899.208 429C899.208 430.328 899.664 431.456 900.576 432.384ZM730.176 455H731.76V467H730.176V461.768H723.264V467H721.68V455H723.264V460.232H730.176V455ZM745.43 455H747.014V467H745.43V464.648C744.326 466.408 742.71 467.288 740.582 467.288C738.87 467.288 737.406 466.68 736.19 465.464C734.99 464.248 734.39 462.76 734.39 461C734.39 459.24 734.99 457.752 736.19 456.536C737.406 455.32 738.87 454.712 740.582 454.712C742.71 454.712 744.326 455.592 745.43 457.352V455ZM737.342 464.384C738.254 465.296 739.374 465.752 740.702 465.752C742.03 465.752 743.15 465.296 744.062 464.384C744.974 463.456 745.43 462.328 745.43 461C745.43 459.672 744.974 458.552 744.062 457.64C743.15 456.712 742.03 456.248 740.702 456.248C739.374 456.248 738.254 456.712 737.342 457.64C736.43 458.552 735.974 459.672 735.974 461C735.974 462.328 736.43 463.456 737.342 464.384ZM766.424 465.488C765.208 466.688 763.72 467.288 761.96 467.288C760.2 467.288 758.704 466.688 757.472 465.488C756.256 464.272 755.648 462.776 755.648 461C755.648 459.224 756.256 457.736 757.472 456.536C758.704 455.32 760.2 454.712 761.96 454.712C763.72 454.712 765.208 455.32 766.424 456.536C767.656 457.736 768.272 459.224 768.272 461C768.272 462.776 767.656 464.272 766.424 465.488ZM758.6 464.384C759.512 465.296 760.632 465.752 761.96 465.752C763.288 465.752 764.408 465.296 765.32 464.384C766.232 463.456 766.688 462.328 766.688 461C766.688 459.672 766.232 458.552 765.32 457.64C764.408 456.712 763.288 456.248 761.96 456.248C760.632 456.248 759.512 456.712 758.6 457.64C757.688 458.552 757.232 459.672 757.232 461C757.232 462.328 757.688 463.456 758.6 464.384ZM776.514 467.288C774.706 467.288 773.202 466.688 772.002 465.488C770.802 464.272 770.202 462.776 770.202 461C770.202 459.224 770.802 457.736 772.002 456.536C773.202 455.32 774.706 454.712 776.514 454.712C777.698 454.712 778.762 455 779.706 455.576C780.65 456.136 781.338 456.896 781.77 457.856L780.474 458.6C780.154 457.88 779.634 457.312 778.914 456.896C778.21 456.464 777.41 456.248 776.514 456.248C775.186 456.248 774.066 456.712 773.154 457.64C772.242 458.552 771.786 459.672 771.786 461C771.786 462.328 772.242 463.456 773.154 464.384C774.066 465.296 775.186 465.752 776.514 465.752C777.41 465.752 778.21 465.544 778.914 465.128C779.618 464.696 780.17 464.12 780.57 463.4L781.89 464.168C781.394 465.128 780.666 465.888 779.706 466.448C778.746 467.008 777.682 467.288 776.514 467.288ZM792.66 455H794.244V467H792.66V461.768H785.748V467H784.164V455H785.748V460.232H792.66V455ZM807.65 465.488C806.434 466.688 804.946 467.288 803.186 467.288C801.426 467.288 799.93 466.688 798.698 465.488C797.482 464.272 796.874 462.776 796.874 461C796.874 459.224 797.482 457.736 798.698 456.536C799.93 455.32 801.426 454.712 803.186 454.712C804.946 454.712 806.434 455.32 807.65 456.536C808.882 457.736 809.498 459.224 809.498 461C809.498 462.776 808.882 464.272 807.65 465.488ZM799.826 464.384C800.738 465.296 801.858 465.752 803.186 465.752C804.514 465.752 805.634 465.296 806.546 464.384C807.458 463.456 807.914 462.328 807.914 461C807.914 459.672 807.458 458.552 806.546 457.64C805.634 456.712 804.514 456.248 803.186 456.248C801.858 456.248 800.738 456.712 799.826 457.64C798.914 458.552 798.458 459.672 798.458 461C798.458 462.328 798.914 463.456 799.826 464.384ZM819.781 460.832C821.093 461.312 821.749 462.248 821.749 463.64C821.749 464.616 821.421 465.424 820.765 466.064C820.125 466.688 819.197 467 817.981 467H812.149V455H817.501C818.669 455 819.573 455.304 820.213 455.912C820.853 456.504 821.173 457.272 821.173 458.216C821.173 459.416 820.709 460.288 819.781 460.832ZM817.501 456.536H813.733V460.184H817.501C818.893 460.184 819.589 459.56 819.589 458.312C819.589 457.752 819.405 457.32 819.037 457.016C818.685 456.696 818.173 456.536 817.501 456.536ZM817.981 465.464C818.685 465.464 819.221 465.296 819.589 464.96C819.973 464.624 820.165 464.152 820.165 463.544C820.165 462.984 819.973 462.544 819.589 462.224C819.221 461.888 818.685 461.72 817.981 461.72H813.733V465.464H817.981ZM832.645 455H834.229V467H832.645V461.768H825.733V467H824.149V455H825.733V460.232H832.645V455ZM847.634 465.488C846.418 466.688 844.93 467.288 843.17 467.288C841.41 467.288 839.914 466.688 838.682 465.488C837.466 464.272 836.858 462.776 836.858 461C836.858 459.224 837.466 457.736 838.682 456.536C839.914 455.32 841.41 454.712 843.17 454.712C844.93 454.712 846.418 455.32 847.634 456.536C848.866 457.736 849.482 459.224 849.482 461C849.482 462.776 848.866 464.272 847.634 465.488ZM839.81 464.384C840.722 465.296 841.842 465.752 843.17 465.752C844.498 465.752 845.618 465.296 846.53 464.384C847.442 463.456 847.898 462.328 847.898 461C847.898 459.672 847.442 458.552 846.53 457.64C845.618 456.712 844.498 456.248 843.17 456.248C841.842 456.248 840.722 456.712 839.81 457.64C838.898 458.552 838.442 459.672 838.442 461C838.442 462.328 838.898 463.456 839.81 464.384ZM854.053 453.08V451.688H860.293V453.08H854.053ZM860.869 455H862.213V467H860.629V457.76L853.477 467H852.133V455H853.717V464.24L860.869 455ZM883.275 456.728C884.427 457.896 885.003 459.32 885.003 461C885.003 462.68 884.427 464.104 883.275 465.272C882.123 466.44 880.603 467.104 878.715 467.264V471.8H877.131V467.264C875.243 467.104 873.723 466.44 872.571 465.272C871.419 464.104 870.843 462.68 870.843 461C870.843 459.32 871.419 457.896 872.571 456.728C873.723 455.56 875.243 454.896 877.131 454.736V450.2H878.715V454.736C880.603 454.896 882.123 455.56 883.275 456.728ZM873.699 457.832C872.851 458.696 872.427 459.752 872.427 461C872.427 462.248 872.851 463.312 873.699 464.192C874.547 465.056 875.691 465.56 877.131 465.704V456.296C875.691 456.44 874.547 456.952 873.699 457.832ZM878.715 465.704C880.155 465.56 881.299 465.056 882.147 464.192C882.995 463.312 883.419 462.248 883.419 461C883.419 459.752 882.995 458.696 882.147 457.832C881.299 456.952 880.155 456.44 878.715 456.296V465.704ZM895.812 455H897.492L892.356 468.104C891.892 469.288 891.228 470.216 890.364 470.888C889.516 471.576 888.564 471.88 887.508 471.8V470.312C888.948 470.472 890.044 469.64 890.796 467.816L891.108 467.072L885.732 455H887.412L891.924 465.056L895.812 455ZM907.903 455H909.487V467H907.903V461.768H900.991V467H899.407V455H900.991V460.232H907.903V455ZM922.532 467H920.42L914.42 461.216V467H912.836V455H914.42V460.304L920.132 455H922.292L916.1 460.76L922.532 467ZM934.536 465.464H936.456V470.216H934.872V467H924.696V455H926.28V465.464H932.952V455H934.536V465.464ZM947.588 455H948.932V467H947.348V457.76L940.196 467H938.852V455H940.436V464.24L947.588 455ZM962.338 465.488C961.122 466.688 959.634 467.288 957.874 467.288C956.114 467.288 954.618 466.688 953.386 465.488C952.17 464.272 951.562 462.776 951.562 461C951.562 459.224 952.17 457.736 953.386 456.536C954.618 455.32 956.114 454.712 957.874 454.712C959.634 454.712 961.122 455.32 962.338 456.536C963.57 457.736 964.186 459.224 964.186 461C964.186 462.776 963.57 464.272 962.338 465.488ZM954.514 464.384C955.426 465.296 956.546 465.752 957.874 465.752C959.202 465.752 960.322 465.296 961.234 464.384C962.146 463.456 962.602 462.328 962.602 461C962.602 459.672 962.146 458.552 961.234 457.64C960.322 456.712 959.202 456.248 957.874 456.248C956.546 456.248 955.426 456.712 954.514 457.64C953.602 458.552 953.146 459.672 953.146 461C953.146 462.328 953.602 463.456 954.514 464.384ZM975.332 455H976.916V467H975.332V461.768H968.42V467H966.836V455H968.42V460.232H975.332V455ZM990.586 455H992.17V467H990.586V464.648C989.482 466.408 987.866 467.288 985.738 467.288C984.026 467.288 982.562 466.68 981.346 465.464C980.146 464.248 979.546 462.76 979.546 461C979.546 459.24 980.146 457.752 981.346 456.536C982.562 455.32 984.026 454.712 985.738 454.712C987.866 454.712 989.482 455.592 990.586 457.352V455ZM982.498 464.384C983.41 465.296 984.53 465.752 985.858 465.752C987.186 465.752 988.306 465.296 989.218 464.384C990.13 463.456 990.586 462.328 990.586 461C990.586 459.672 990.13 458.552 989.218 457.64C988.306 456.712 987.186 456.248 985.858 456.248C984.53 456.248 983.41 456.712 982.498 457.64C981.586 458.552 981.13 459.672 981.13 461C981.13 462.328 981.586 463.456 982.498 464.384ZM1005.36 455V467H1003.78V456.536H998.356V461.888C998.356 463.888 997.972 465.264 997.204 466.016C996.452 466.768 995.412 467.096 994.084 467V465.512C994.996 465.608 995.668 465.392 996.1 464.864C996.548 464.336 996.772 463.344 996.772 461.888V455H1005.36Z" fill="#424242"/>
<circle cx="1634" cy="21" r="6" fill="url(#paint7_linear_314_1888)"/>
<circle cx="1634" cy="21" r="13" stroke="url(#paint8_linear_314_1888)" stroke-opacity="0.1" stroke-width="14"/>
<path d="M1472.78 191.72C1464.57 202.28 1452.94 207.56 1437.9 207.56C1422.86 207.56 1411.23 202.28 1403.02 191.72C1394.81 181.053 1390.7 166.813 1390.7 149C1390.7 131.187 1394.81 117 1403.02 106.44C1411.23 95.7733 1422.86 90.44 1437.9 90.44C1452.94 90.44 1464.57 95.7733 1472.78 106.44C1480.99 117 1485.1 131.187 1485.1 149C1485.1 166.813 1480.99 181.053 1472.78 191.72ZM1422.7 149C1422.7 167.347 1427.77 176.52 1437.9 176.52C1448.03 176.52 1453.1 167.347 1453.1 149C1453.1 130.653 1448.03 121.48 1437.9 121.48C1427.77 121.48 1422.7 130.653 1422.7 149ZM1545.32 138.76C1552.57 140.893 1558.33 144.627 1562.6 149.96C1566.97 155.187 1569.16 161.8 1569.16 169.8C1569.16 182.173 1565.21 191.56 1557.32 197.96C1549.42 204.36 1539.5 207.56 1527.56 207.56C1517.74 207.56 1509.16 205.32 1501.8 200.84C1494.44 196.36 1489.16 189.747 1485.96 181L1514.12 164.84C1516.36 172.627 1520.84 176.52 1527.56 176.52C1530.44 176.52 1532.73 175.773 1534.44 174.28C1536.25 172.787 1537.16 170.76 1537.16 168.2C1537.16 162.867 1533.96 160.2 1527.56 160.2H1520.68L1508.2 141.64L1523.24 124.04H1489.48V93H1563.08V117.64L1545.32 138.76Z" fill="url(#paint9_linear_314_1888)"/>
<path d="M1247.92 218.2C1249.42 218.2 1250.68 218.704 1251.69 219.712C1252.7 220.72 1253.2 221.976 1253.2 223.48C1253.2 224.984 1252.7 226.24 1251.69 227.248C1250.68 228.256 1249.42 228.76 1247.92 228.76H1243.6V235H1241.92V218.2H1247.92ZM1247.92 227.176C1248.96 227.176 1249.82 226.832 1250.49 226.144C1251.18 225.44 1251.52 224.552 1251.52 223.48C1251.52 222.408 1251.18 221.528 1250.49 220.84C1249.82 220.136 1248.96 219.784 1247.92 219.784H1243.6V227.176H1247.92ZM1265.2 223H1266.78V235H1265.2V232.648C1264.09 234.408 1262.48 235.288 1260.35 235.288C1258.64 235.288 1257.17 234.68 1255.96 233.464C1254.76 232.248 1254.16 230.76 1254.16 229C1254.16 227.24 1254.76 225.752 1255.96 224.536C1257.17 223.32 1258.64 222.712 1260.35 222.712C1262.48 222.712 1264.09 223.592 1265.2 225.352V223ZM1257.11 232.384C1258.02 233.296 1259.14 233.752 1260.47 233.752C1261.8 233.752 1262.92 233.296 1263.83 232.384C1264.74 231.456 1265.2 230.328 1265.2 229C1265.2 227.672 1264.74 226.552 1263.83 225.64C1262.92 224.712 1261.8 224.248 1260.47 224.248C1259.14 224.248 1258.02 224.712 1257.11 225.64C1256.2 226.552 1255.74 227.672 1255.74 229C1255.74 230.328 1256.2 231.456 1257.11 232.384ZM1276.33 228.832C1277.72 229.36 1278.41 230.32 1278.41 231.712C1278.41 232.704 1278.02 233.552 1277.24 234.256C1276.47 234.944 1275.37 235.288 1273.93 235.288C1271.51 235.288 1269.93 234.328 1269.17 232.408L1270.52 231.616C1271.01 233.04 1272.15 233.752 1273.93 233.752C1274.85 233.752 1275.57 233.552 1276.06 233.152C1276.57 232.752 1276.83 232.24 1276.83 231.616C1276.83 231.056 1276.62 230.6 1276.21 230.248C1275.79 229.896 1275.23 229.72 1274.53 229.72H1272.77V228.184H1274.05C1274.73 228.184 1275.27 228.016 1275.65 227.68C1276.05 227.328 1276.25 226.848 1276.25 226.24C1276.25 225.664 1276.02 225.192 1275.56 224.824C1275.09 224.44 1274.47 224.248 1273.69 224.248C1272.18 224.248 1271.18 224.848 1270.69 226.048L1269.37 225.28C1270.17 223.568 1271.61 222.712 1273.69 222.712C1274.95 222.712 1275.96 223.048 1276.71 223.72C1277.46 224.376 1277.84 225.184 1277.84 226.144C1277.84 227.376 1277.33 228.272 1276.33 228.832ZM1287.25 222.712C1288.96 222.712 1290.42 223.32 1291.62 224.536C1292.84 225.752 1293.44 227.24 1293.44 229C1293.44 230.76 1292.84 232.248 1291.62 233.464C1290.42 234.68 1288.96 235.288 1287.25 235.288C1285.12 235.288 1283.51 234.408 1282.4 232.648V239.8H1280.82V223H1282.4V225.352C1283.51 223.592 1285.12 222.712 1287.25 222.712ZM1283.77 232.384C1284.68 233.296 1285.8 233.752 1287.13 233.752C1288.46 233.752 1289.58 233.296 1290.49 232.384C1291.4 231.456 1291.86 230.328 1291.86 229C1291.86 227.672 1291.4 226.552 1290.49 225.64C1289.58 224.712 1288.46 224.248 1287.13 224.248C1285.8 224.248 1284.68 224.712 1283.77 225.64C1282.86 226.552 1282.4 227.672 1282.4 229C1282.4 230.328 1282.86 231.456 1283.77 232.384ZM1306.4 223H1307.98V235H1306.4V232.648C1305.29 234.408 1303.68 235.288 1301.55 235.288C1299.84 235.288 1298.37 234.68 1297.16 233.464C1295.96 232.248 1295.36 230.76 1295.36 229C1295.36 227.24 1295.96 225.752 1297.16 224.536C1298.37 223.32 1299.84 222.712 1301.55 222.712C1303.68 222.712 1305.29 223.592 1306.4 225.352V223ZM1298.31 232.384C1299.22 233.296 1300.34 233.752 1301.67 233.752C1303 233.752 1304.12 233.296 1305.03 232.384C1305.94 231.456 1306.4 230.328 1306.4 229C1306.4 227.672 1305.94 226.552 1305.03 225.64C1304.12 224.712 1303 224.248 1301.67 224.248C1300.34 224.248 1299.22 224.712 1298.31 225.64C1297.4 226.552 1296.94 227.672 1296.94 229C1296.94 230.328 1297.4 231.456 1298.31 232.384ZM1316.66 235.288C1314.94 235.288 1313.5 234.72 1312.34 233.584C1311.19 232.432 1310.62 230.944 1310.62 229.12C1310.62 227.072 1310.92 225.504 1311.53 224.416C1312.14 223.312 1313.37 222.312 1315.22 221.416C1315.58 221.24 1316.04 221.032 1316.62 220.792C1317.21 220.552 1317.65 220.36 1317.94 220.216C1318.24 220.072 1318.57 219.888 1318.92 219.664C1319.27 219.424 1319.54 219.16 1319.71 218.872C1319.89 218.584 1320 218.24 1320.05 217.84L1321.3 218.56C1321.23 218.944 1321.1 219.304 1320.91 219.64C1320.72 219.976 1320.52 220.248 1320.31 220.456C1320.12 220.664 1319.81 220.896 1319.38 221.152C1318.96 221.392 1318.63 221.568 1318.39 221.68C1318.17 221.776 1317.77 221.944 1317.19 222.184C1316.63 222.424 1316.26 222.584 1316.06 222.664C1314.94 223.144 1314.12 223.648 1313.59 224.176C1313.06 224.688 1312.69 225.36 1312.46 226.192C1313.01 225.472 1313.7 224.944 1314.53 224.608C1315.38 224.256 1316.2 224.08 1317 224.08C1318.6 224.08 1319.92 224.608 1320.96 225.664C1322.02 226.704 1322.54 228.04 1322.54 229.672C1322.54 231.288 1321.98 232.632 1320.86 233.704C1319.76 234.76 1318.36 235.288 1316.66 235.288ZM1316.66 233.704C1317.91 233.704 1318.94 233.328 1319.74 232.576C1320.55 231.808 1320.96 230.84 1320.96 229.672C1320.96 228.488 1320.58 227.52 1319.81 226.768C1319.06 226 1318.05 225.616 1316.78 225.616C1315.65 225.616 1314.62 225.976 1313.69 226.696C1312.76 227.4 1312.3 228.344 1312.3 229.528C1312.3 230.744 1312.71 231.744 1313.54 232.528C1314.39 233.312 1315.43 233.704 1316.66 233.704ZM1335.01 233.488C1333.79 234.688 1332.31 235.288 1330.55 235.288C1328.79 235.288 1327.29 234.688 1326.06 233.488C1324.84 232.272 1324.23 230.776 1324.23 229C1324.23 227.224 1324.84 225.736 1326.06 224.536C1327.29 223.32 1328.79 222.712 1330.55 222.712C1332.31 222.712 1333.79 223.32 1335.01 224.536C1336.24 225.736 1336.86 227.224 1336.86 229C1336.86 230.776 1336.24 232.272 1335.01 233.488ZM1327.19 232.384C1328.1 233.296 1329.22 233.752 1330.55 233.752C1331.87 233.752 1332.99 233.296 1333.91 232.384C1334.82 231.456 1335.27 230.328 1335.27 229C1335.27 227.672 1334.82 226.552 1333.91 225.64C1332.99 224.712 1331.87 224.248 1330.55 224.248C1329.22 224.248 1328.1 224.712 1327.19 225.64C1326.27 226.552 1325.82 227.672 1325.82 229C1325.82 230.328 1326.27 231.456 1327.19 232.384ZM1347.68 223V224.536H1343.43V235H1341.85V224.536H1337.6V223H1347.68ZM1359.31 235H1357.19L1351.19 229.216V235H1349.61V223H1351.19V228.304L1356.91 223H1359.07L1352.87 228.76L1359.31 235ZM1370.59 223H1372.18V235H1370.59V232.648C1369.49 234.408 1367.87 235.288 1365.75 235.288C1364.03 235.288 1362.57 234.68 1361.35 233.464C1360.15 232.248 1359.55 230.76 1359.55 229C1359.55 227.24 1360.15 225.752 1361.35 224.536C1362.57 223.32 1364.03 222.712 1365.75 222.712C1367.87 222.712 1369.49 223.592 1370.59 225.352V223ZM1362.51 232.384C1363.42 233.296 1364.54 233.752 1365.87 233.752C1367.19 233.752 1368.31 233.296 1369.23 232.384C1370.14 231.456 1370.59 230.328 1370.59 229C1370.59 227.672 1370.14 226.552 1369.23 225.64C1368.31 224.712 1367.19 224.248 1365.87 224.248C1364.54 224.248 1363.42 224.712 1362.51 225.64C1361.59 226.552 1361.14 227.672 1361.14 229C1361.14 230.328 1361.59 231.456 1362.51 232.384ZM1378.17 232.96L1376.73 238.36H1375.29L1376.25 232.96H1378.17ZM1250.18 255H1251.76V267H1250.18V261.768H1243.26V267H1241.68V255H1243.26V260.232H1250.18V255ZM1265.43 255H1267.01V267H1265.43V264.648C1264.33 266.408 1262.71 267.288 1260.58 267.288C1258.87 267.288 1257.41 266.68 1256.19 265.464C1254.99 264.248 1254.39 262.76 1254.39 261C1254.39 259.24 1254.99 257.752 1256.19 256.536C1257.41 255.32 1258.87 254.712 1260.58 254.712C1262.71 254.712 1264.33 255.592 1265.43 257.352V255ZM1257.34 264.384C1258.25 265.296 1259.37 265.752 1260.7 265.752C1262.03 265.752 1263.15 265.296 1264.06 264.384C1264.97 263.456 1265.43 262.328 1265.43 261C1265.43 259.672 1264.97 258.552 1264.06 257.64C1263.15 256.712 1262.03 256.248 1260.7 256.248C1259.37 256.248 1258.25 256.712 1257.34 257.64C1256.43 258.552 1255.97 259.672 1255.97 261C1255.97 262.328 1256.43 263.456 1257.34 264.384ZM1275.96 267.288C1274.15 267.288 1272.65 266.688 1271.45 265.488C1270.25 264.272 1269.65 262.776 1269.65 261C1269.65 259.224 1270.25 257.736 1271.45 256.536C1272.65 255.32 1274.15 254.712 1275.96 254.712C1277.14 254.712 1278.21 255 1279.15 255.576C1280.1 256.136 1280.78 256.896 1281.22 257.856L1279.92 258.6C1279.6 257.88 1279.08 257.312 1278.36 256.896C1277.66 256.464 1276.86 256.248 1275.96 256.248C1274.63 256.248 1273.51 256.712 1272.6 257.64C1271.69 258.552 1271.23 259.672 1271.23 261C1271.23 262.328 1271.69 263.456 1272.6 264.384C1273.51 265.296 1274.63 265.752 1275.96 265.752C1276.86 265.752 1277.66 265.544 1278.36 265.128C1279.06 264.696 1279.62 264.12 1280.02 263.4L1281.34 264.168C1280.84 265.128 1280.11 265.888 1279.15 266.448C1278.19 267.008 1277.13 267.288 1275.96 267.288ZM1292.02 255V256.536H1287.77V267H1286.18V256.536H1281.94V255H1292.02ZM1300.38 254.712C1302.09 254.712 1303.55 255.32 1304.75 256.536C1305.96 257.752 1306.57 259.24 1306.57 261C1306.57 262.76 1305.96 264.248 1304.75 265.464C1303.55 266.68 1302.09 267.288 1300.38 267.288C1298.25 267.288 1296.63 266.408 1295.53 264.648V271.8H1293.95V255H1295.53V257.352C1296.63 255.592 1298.25 254.712 1300.38 254.712ZM1296.9 264.384C1297.81 265.296 1298.93 265.752 1300.26 265.752C1301.59 265.752 1302.71 265.296 1303.62 264.384C1304.53 263.456 1304.99 262.328 1304.99 261C1304.99 259.672 1304.53 258.552 1303.62 257.64C1302.71 256.712 1301.59 256.248 1300.26 256.248C1298.93 256.248 1297.81 256.712 1296.9 257.64C1295.99 258.552 1295.53 259.672 1295.53 261C1295.53 262.328 1295.99 263.456 1296.9 264.384ZM1319.26 265.488C1318.04 266.688 1316.56 267.288 1314.8 267.288C1313.04 267.288 1311.54 266.688 1310.31 265.488C1309.09 264.272 1308.48 262.776 1308.48 261C1308.48 259.224 1309.09 257.736 1310.31 256.536C1311.54 255.32 1313.04 254.712 1314.8 254.712C1316.56 254.712 1318.04 255.32 1319.26 256.536C1320.49 257.736 1321.11 259.224 1321.11 261C1321.11 262.776 1320.49 264.272 1319.26 265.488ZM1311.44 264.384C1312.35 265.296 1313.47 265.752 1314.8 265.752C1316.12 265.752 1317.24 265.296 1318.16 264.384C1319.07 263.456 1319.52 262.328 1319.52 261C1319.52 259.672 1319.07 258.552 1318.16 257.64C1317.24 256.712 1316.12 256.248 1314.8 256.248C1313.47 256.248 1312.35 256.712 1311.44 257.64C1310.52 258.552 1310.07 259.672 1310.07 261C1310.07 262.328 1310.52 263.456 1311.44 264.384ZM1325.68 253.08V251.688H1331.92V253.08H1325.68ZM1332.49 255H1333.84V267H1332.25V257.76L1325.1 267H1323.76V255H1325.34V264.24L1332.49 255ZM1346.88 267H1344.77L1338.77 261.216V267H1337.19V255H1338.77V260.304L1344.48 255H1346.64L1340.45 260.76L1346.88 267ZM1358.17 255H1359.76V267H1358.17V264.648C1357.07 266.408 1355.45 267.288 1353.32 267.288C1351.61 267.288 1350.15 266.68 1348.93 265.464C1347.73 264.248 1347.13 262.76 1347.13 261C1347.13 259.24 1347.73 257.752 1348.93 256.536C1350.15 255.32 1351.61 254.712 1353.32 254.712C1355.45 254.712 1357.07 255.592 1358.17 257.352V255ZM1350.08 264.384C1351 265.296 1352.12 265.752 1353.44 265.752C1354.77 265.752 1355.89 265.296 1356.8 264.384C1357.72 263.456 1358.17 262.328 1358.17 261C1358.17 259.672 1357.72 258.552 1356.8 257.64C1355.89 256.712 1354.77 256.248 1353.44 256.248C1352.12 256.248 1351 256.712 1350.08 257.64C1349.17 258.552 1348.72 259.672 1348.72 261C1348.72 262.328 1349.17 263.456 1350.08 264.384ZM1377.85 255H1379.19V267H1377.61V257.76L1370.45 267H1369.11V255H1370.69V264.24L1377.85 255ZM1396.17 260.832C1397.48 261.312 1398.14 262.248 1398.14 263.64C1398.14 264.616 1397.81 265.424 1397.16 266.064C1396.52 266.688 1395.59 267 1394.37 267H1388.54V255H1393.89C1395.06 255 1395.96 255.304 1396.6 255.912C1397.24 256.504 1397.56 257.272 1397.56 258.216C1397.56 259.416 1397.1 260.288 1396.17 260.832ZM1393.89 256.536H1390.12V260.184H1393.89C1395.28 260.184 1395.98 259.56 1395.98 258.312C1395.98 257.752 1395.8 257.32 1395.43 257.016C1395.08 256.696 1394.56 256.536 1393.89 256.536ZM1394.37 265.464C1395.08 265.464 1395.61 265.296 1395.98 264.96C1396.36 264.624 1396.56 264.152 1396.56 263.544C1396.56 262.984 1396.36 262.544 1395.98 262.224C1395.61 261.888 1395.08 261.72 1394.37 261.72H1390.12V265.464H1394.37ZM1409.04 255H1410.62V267H1409.04V261.768H1402.12V267H1400.54V255H1402.12V260.232H1409.04V255ZM1419.51 254.712C1421.29 254.712 1422.72 255.344 1423.81 256.608C1424.91 257.856 1425.47 259.336 1425.47 261.048C1425.47 261.224 1425.45 261.472 1425.42 261.792H1414.88C1415.04 263.008 1415.55 263.976 1416.42 264.696C1417.3 265.4 1418.38 265.752 1419.66 265.752C1420.57 265.752 1421.35 265.568 1422.01 265.2C1422.68 264.816 1423.19 264.32 1423.52 263.712L1424.91 264.528C1424.39 265.376 1423.67 266.048 1422.75 266.544C1421.84 267.04 1420.8 267.288 1419.63 267.288C1417.75 267.288 1416.21 266.696 1415.03 265.512C1413.84 264.328 1413.25 262.824 1413.25 261C1413.25 259.208 1413.83 257.712 1415 256.512C1416.17 255.312 1417.67 254.712 1419.51 254.712ZM1419.51 256.248C1418.27 256.248 1417.22 256.624 1416.37 257.376C1415.54 258.112 1415.04 259.072 1414.88 260.256H1423.83C1423.67 258.992 1423.19 258.008 1422.37 257.304C1421.55 256.6 1420.6 256.248 1419.51 256.248ZM1437.6 265.464H1439.28V270.216H1437.69V267H1427.9V270.216H1426.32V265.464H1427.78C1428.6 264.392 1429 262.88 1429 260.928V255H1437.6V265.464ZM1429.7 265.464H1436.01V256.536H1430.59V260.928C1430.59 262.768 1430.29 264.28 1429.7 265.464ZM1448.1 254.712C1449.82 254.712 1451.27 255.32 1452.47 256.536C1453.69 257.752 1454.3 259.24 1454.3 261C1454.3 262.76 1453.69 264.248 1452.47 265.464C1451.27 266.68 1449.82 267.288 1448.1 267.288C1445.98 267.288 1444.36 266.408 1443.26 264.648V271.8H1441.67V255H1443.26V257.352C1444.36 255.592 1445.98 254.712 1448.1 254.712ZM1444.62 264.384C1445.54 265.296 1446.66 265.752 1447.98 265.752C1449.31 265.752 1450.43 265.296 1451.34 264.384C1452.26 263.456 1452.71 262.328 1452.71 261C1452.71 259.672 1452.26 258.552 1451.34 257.64C1450.43 256.712 1449.31 256.248 1447.98 256.248C1446.66 256.248 1445.54 256.712 1444.62 257.64C1443.71 258.552 1443.26 259.672 1443.26 261C1443.26 262.328 1443.71 263.456 1444.62 264.384ZM1462.47 254.712C1464.25 254.712 1465.68 255.344 1466.77 256.608C1467.87 257.856 1468.43 259.336 1468.43 261.048C1468.43 261.224 1468.41 261.472 1468.38 261.792H1457.84C1458 263.008 1458.51 263.976 1459.38 264.696C1460.26 265.4 1461.34 265.752 1462.62 265.752C1463.53 265.752 1464.31 265.568 1464.97 265.2C1465.64 264.816 1466.15 264.32 1466.48 263.712L1467.87 264.528C1467.35 265.376 1466.63 266.048 1465.71 266.544C1464.8 267.04 1463.76 267.288 1462.59 267.288C1460.71 267.288 1459.17 266.696 1457.99 265.512C1456.8 264.328 1456.21 262.824 1456.21 261C1456.21 259.208 1456.79 257.712 1457.96 256.512C1459.13 255.312 1460.63 254.712 1462.47 254.712ZM1462.47 256.248C1461.23 256.248 1460.18 256.624 1459.33 257.376C1458.5 258.112 1458 259.072 1457.84 260.256H1466.79C1466.63 258.992 1466.15 258.008 1465.33 257.304C1464.51 256.6 1463.56 256.248 1462.47 256.248ZM1479.44 255H1481.03V267H1479.44V261.768H1472.53V267H1470.95V255H1472.53V260.232H1479.44V255ZM1493.11 255H1494.46V267H1492.87V257.76L1485.72 267H1484.38V255H1485.96V264.24L1493.11 255ZM1506.45 255V267H1504.86V262.392H1502.8L1499.1 267H1497.09L1500.88 262.344C1499.92 262.2 1499.13 261.8 1498.5 261.144C1497.88 260.488 1497.57 259.68 1497.57 258.72C1497.57 257.632 1497.95 256.744 1498.72 256.056C1499.5 255.352 1500.45 255 1501.57 255H1506.45ZM1501.57 260.904H1504.86V256.536H1501.57C1500.9 256.536 1500.33 256.736 1499.85 257.136C1499.38 257.536 1499.15 258.064 1499.15 258.72C1499.15 259.376 1499.38 259.904 1499.85 260.304C1500.33 260.704 1500.9 260.904 1501.57 260.904ZM1251.76 287V299H1250.18V288.536H1243.26V299H1241.68V287H1251.76ZM1265.17 297.488C1263.95 298.688 1262.46 299.288 1260.7 299.288C1258.94 299.288 1257.45 298.688 1256.21 297.488C1255 296.272 1254.39 294.776 1254.39 293C1254.39 291.224 1255 289.736 1256.21 288.536C1257.45 287.32 1258.94 286.712 1260.7 286.712C1262.46 286.712 1263.95 287.32 1265.17 288.536C1266.4 289.736 1267.01 291.224 1267.01 293C1267.01 294.776 1266.4 296.272 1265.17 297.488ZM1257.34 296.384C1258.25 297.296 1259.37 297.752 1260.7 297.752C1262.03 297.752 1263.15 297.296 1264.06 296.384C1264.97 295.456 1265.43 294.328 1265.43 293C1265.43 291.672 1264.97 290.552 1264.06 289.64C1263.15 288.712 1262.03 288.248 1260.7 288.248C1259.37 288.248 1258.25 288.712 1257.34 289.64C1256.43 290.552 1255.97 291.672 1255.97 293C1255.97 294.328 1256.43 295.456 1257.34 296.384ZM1279.28 297.464H1280.96V302.216H1279.37V299H1269.58V302.216H1268V297.464H1269.46C1270.28 296.392 1270.68 294.88 1270.68 292.928V287H1279.28V297.464ZM1271.38 297.464H1277.69V288.536H1272.27V292.928C1272.27 294.768 1271.97 296.28 1271.38 297.464ZM1296.98 292.832C1298.3 293.312 1298.95 294.248 1298.95 295.64C1298.95 296.616 1298.62 297.424 1297.97 298.064C1297.33 298.688 1296.4 299 1295.18 299H1289.35V287H1294.7C1295.87 287 1296.78 287.304 1297.42 287.912C1298.06 288.504 1298.38 289.272 1298.38 290.216C1298.38 291.416 1297.91 292.288 1296.98 292.832ZM1294.7 288.536H1290.94V292.184H1294.7C1296.1 292.184 1296.79 291.56 1296.79 290.312C1296.79 289.752 1296.61 289.32 1296.24 289.016C1295.89 288.696 1295.38 288.536 1294.7 288.536ZM1295.18 297.464C1295.89 297.464 1296.42 297.296 1296.79 296.96C1297.18 296.624 1297.37 296.152 1297.37 295.544C1297.37 294.984 1297.18 294.544 1296.79 294.224C1296.42 293.888 1295.89 293.72 1295.18 293.72H1290.94V297.464H1295.18ZM1311.67 287H1313.26V299H1311.67V296.648C1310.57 298.408 1308.95 299.288 1306.82 299.288C1305.11 299.288 1303.65 298.68 1302.43 297.464C1301.23 296.248 1300.63 294.76 1300.63 293C1300.63 291.24 1301.23 289.752 1302.43 288.536C1303.65 287.32 1305.11 286.712 1306.82 286.712C1308.95 286.712 1310.57 287.592 1311.67 289.352V287ZM1303.58 296.384C1304.5 297.296 1305.62 297.752 1306.94 297.752C1308.27 297.752 1309.39 297.296 1310.3 296.384C1311.22 295.456 1311.67 294.328 1311.67 293C1311.67 291.672 1311.22 290.552 1310.3 289.64C1309.39 288.712 1308.27 288.248 1306.94 288.248C1305.62 288.248 1304.5 288.712 1303.58 289.64C1302.67 290.552 1302.22 291.672 1302.22 293C1302.22 294.328 1302.67 295.456 1303.58 296.384ZM1331.11 287H1332.69V299H1316.61V287H1318.19V297.464H1323.86V287H1325.44V297.464H1331.11V287ZM1344.78 287H1346.12V299H1344.54V289.76L1337.38 299H1336.04V287H1337.62V296.24L1344.78 287ZM1364.11 287V288.536H1359.86V299H1358.28V288.536H1354.03V287H1364.11ZM1372.47 286.712C1374.18 286.712 1375.64 287.32 1376.84 288.536C1378.06 289.752 1378.66 291.24 1378.66 293C1378.66 294.76 1378.06 296.248 1376.84 297.464C1375.64 298.68 1374.18 299.288 1372.47 299.288C1370.34 299.288 1368.73 298.408 1367.62 296.648V303.8H1366.04V287H1367.62V289.352C1368.73 287.592 1370.34 286.712 1372.47 286.712ZM1368.99 296.384C1369.9 297.296 1371.02 297.752 1372.35 297.752C1373.68 297.752 1374.8 297.296 1375.71 296.384C1376.62 295.456 1377.08 294.328 1377.08 293C1377.08 291.672 1376.62 290.552 1375.71 289.64C1374.8 288.712 1373.68 288.248 1372.35 288.248C1371.02 288.248 1369.9 288.712 1368.99 289.64C1368.08 290.552 1367.62 291.672 1367.62 293C1367.62 294.328 1368.08 295.456 1368.99 296.384ZM1386.84 286.712C1388.62 286.712 1390.05 287.344 1391.14 288.608C1392.24 289.856 1392.79 291.336 1392.79 293.048C1392.79 293.224 1392.78 293.472 1392.75 293.792H1382.21C1382.37 295.008 1382.88 295.976 1383.75 296.696C1384.63 297.4 1385.71 297.752 1386.99 297.752C1387.9 297.752 1388.68 297.568 1389.34 297.2C1390.01 296.816 1390.51 296.32 1390.85 295.712L1392.24 296.528C1391.71 297.376 1390.99 298.048 1390.08 298.544C1389.17 299.04 1388.13 299.288 1386.96 299.288C1385.07 299.288 1383.54 298.696 1382.35 297.512C1381.17 296.328 1380.58 294.824 1380.58 293C1380.58 291.208 1381.16 289.712 1382.33 288.512C1383.5 287.312 1385 286.712 1386.84 286.712ZM1386.84 288.248C1385.59 288.248 1384.55 288.624 1383.7 289.376C1382.87 290.112 1382.37 291.072 1382.21 292.256H1391.16C1391 290.992 1390.51 290.008 1389.7 289.304C1388.88 288.6 1387.93 288.248 1386.84 288.248ZM1400.64 299.288C1398.91 299.288 1397.47 298.72 1396.32 297.584C1395.17 296.432 1394.59 294.944 1394.59 293.12C1394.59 291.072 1394.9 289.504 1395.5 288.416C1396.11 287.312 1397.34 286.312 1399.2 285.416C1399.55 285.24 1400.02 285.032 1400.59 284.792C1401.18 284.552 1401.62 284.36 1401.91 284.216C1402.22 284.072 1402.54 283.888 1402.9 283.664C1403.25 283.424 1403.51 283.16 1403.69 282.872C1403.86 282.584 1403.98 282.24 1404.02 281.84L1405.27 282.56C1405.21 282.944 1405.08 283.304 1404.89 283.64C1404.7 283.976 1404.5 284.248 1404.29 284.456C1404.1 284.664 1403.78 284.896 1403.35 285.152C1402.94 285.392 1402.61 285.568 1402.37 285.68C1402.14 285.776 1401.74 285.944 1401.17 286.184C1400.61 286.424 1400.23 286.584 1400.04 286.664C1398.92 287.144 1398.1 287.648 1397.57 288.176C1397.04 288.688 1396.66 289.36 1396.44 290.192C1396.98 289.472 1397.67 288.944 1398.5 288.608C1399.35 288.256 1400.18 288.08 1400.98 288.08C1402.58 288.08 1403.9 288.608 1404.94 289.664C1405.99 290.704 1406.52 292.04 1406.52 293.672C1406.52 295.288 1405.96 296.632 1404.84 297.704C1403.74 298.76 1402.34 299.288 1400.64 299.288ZM1400.64 297.704C1401.89 297.704 1402.91 297.328 1403.71 296.576C1404.53 295.808 1404.94 294.84 1404.94 293.672C1404.94 292.488 1404.55 291.52 1403.78 290.768C1403.03 290 1402.02 289.616 1400.76 289.616C1399.62 289.616 1398.59 289.976 1397.66 290.696C1396.74 291.4 1396.27 292.344 1396.27 293.528C1396.27 294.744 1396.69 295.744 1397.52 296.528C1398.37 297.312 1399.41 297.704 1400.64 297.704ZM1418.99 297.488C1417.77 298.688 1416.28 299.288 1414.52 299.288C1412.76 299.288 1411.27 298.688 1410.03 297.488C1408.82 296.272 1408.21 294.776 1408.21 293C1408.21 291.224 1408.82 289.736 1410.03 288.536C1411.27 287.32 1412.76 286.712 1414.52 286.712C1416.28 286.712 1417.77 287.32 1418.99 288.536C1420.22 289.736 1420.83 291.224 1420.83 293C1420.83 294.776 1420.22 296.272 1418.99 297.488ZM1411.16 296.384C1412.07 297.296 1413.19 297.752 1414.52 297.752C1415.85 297.752 1416.97 297.296 1417.88 296.384C1418.79 295.456 1419.25 294.328 1419.25 293C1419.25 291.672 1418.79 290.552 1417.88 289.64C1416.97 288.712 1415.85 288.248 1414.52 288.248C1413.19 288.248 1412.07 288.712 1411.16 289.64C1410.25 290.552 1409.79 291.672 1409.79 293C1409.79 294.328 1410.25 295.456 1411.16 296.384ZM1431.12 292.832C1432.43 293.312 1433.08 294.248 1433.08 295.64C1433.08 296.616 1432.76 297.424 1432.1 298.064C1431.46 298.688 1430.53 299 1429.32 299H1423.48V287H1428.84C1430 287 1430.91 287.304 1431.55 287.912C1432.19 288.504 1432.51 289.272 1432.51 290.216C1432.51 291.416 1432.04 292.288 1431.12 292.832ZM1428.84 288.536H1425.07V292.184H1428.84C1430.23 292.184 1430.92 291.56 1430.92 290.312C1430.92 289.752 1430.74 289.32 1430.37 289.016C1430.02 288.696 1429.51 288.536 1428.84 288.536ZM1429.32 297.464C1430.02 297.464 1430.56 297.296 1430.92 296.96C1431.31 296.624 1431.5 296.152 1431.5 295.544C1431.5 294.984 1431.31 294.544 1430.92 294.224C1430.56 293.888 1430.02 293.72 1429.32 293.72H1425.07V297.464H1429.32ZM1445.8 287H1447.39V299H1445.8V296.648C1444.7 298.408 1443.08 299.288 1440.96 299.288C1439.24 299.288 1437.78 298.68 1436.56 297.464C1435.36 296.248 1434.76 294.76 1434.76 293C1434.76 291.24 1435.36 289.752 1436.56 288.536C1437.78 287.32 1439.24 286.712 1440.96 286.712C1443.08 286.712 1444.7 287.592 1445.8 289.352V287ZM1437.72 296.384C1438.63 297.296 1439.75 297.752 1441.08 297.752C1442.4 297.752 1443.52 297.296 1444.44 296.384C1445.35 295.456 1445.8 294.328 1445.8 293C1445.8 291.672 1445.35 290.552 1444.44 289.64C1443.52 288.712 1442.4 288.248 1441.08 288.248C1439.75 288.248 1438.63 288.712 1437.72 289.64C1436.8 290.552 1436.35 291.672 1436.35 293C1436.35 294.328 1436.8 295.456 1437.72 296.384ZM1459.24 287H1460.82V299H1459.24V293.768H1452.33V299H1450.74V287H1452.33V292.232H1459.24V287ZM1472.91 287H1474.25V299H1472.67V289.76L1465.52 299H1464.17V287H1465.76V296.24L1472.91 287ZM1486.24 287V299H1484.66V294.392H1482.59L1478.9 299H1476.88L1480.67 294.344C1479.71 294.2 1478.92 293.8 1478.3 293.144C1477.67 292.488 1477.36 291.68 1477.36 290.72C1477.36 289.632 1477.75 288.744 1478.51 288.056C1479.3 287.352 1480.25 287 1481.37 287H1486.24ZM1481.37 292.904H1484.66V288.536H1481.37C1480.7 288.536 1480.12 288.736 1479.64 289.136C1479.18 289.536 1478.95 290.064 1478.95 290.72C1478.95 291.376 1479.18 291.904 1479.64 292.304C1480.12 292.704 1480.7 292.904 1481.37 292.904Z" fill="#424242"/>
<defs>
<linearGradient id="paint0_linear_314_1888" x1="27.5054" y1="304.511" x2="1492.36" y2="256.214" gradientUnits="userSpaceOnUse">
<stop stop-color="#FF6060" stop-opacity="0"/>
<stop offset="1" stop-color="#FE124A"/>
</linearGradient>
<linearGradient id="paint1_linear_314_1888" x1="588" y1="424.316" x2="600.004" y2="424.216" gradientUnits="userSpaceOnUse">
<stop stop-color="#FF6060"/>
<stop offset="1" stop-color="#FE124A"/>
</linearGradient>
<linearGradient id="paint2_linear_314_1888" x1="588" y1="424.316" x2="600.004" y2="424.216" gradientUnits="userSpaceOnUse">
<stop stop-color="#FF6060"/>
<stop offset="1" stop-color="#FE124A"/>
</linearGradient>
<linearGradient id="paint3_linear_314_1888" x1="440" y1="457" x2="439.449" y2="598" gradientUnits="userSpaceOnUse">
<stop stop-color="#B1DAFF"/>
<stop offset="1" stop-color="#B1DAFF" stop-opacity="0"/>
</linearGradient>
<linearGradient id="paint4_linear_314_1888" x1="1108" y1="224.316" x2="1120" y2="224.216" gradientUnits="userSpaceOnUse">
<stop stop-color="#FF6060"/>
<stop offset="1" stop-color="#FE124A"/>
</linearGradient>
<linearGradient id="paint5_linear_314_1888" x1="1108" y1="224.316" x2="1120" y2="224.216" gradientUnits="userSpaceOnUse">
<stop stop-color="#FF6060"/>
<stop offset="1" stop-color="#FE124A"/>
</linearGradient>
<linearGradient id="paint6_linear_314_1888" x1="960" y1="247" x2="959.505" y2="388" gradientUnits="userSpaceOnUse">
<stop stop-color="#B1DAFF"/>
<stop offset="1" stop-color="#B1DAFF" stop-opacity="0"/>
</linearGradient>
<linearGradient id="paint7_linear_314_1888" x1="1628" y1="24.3158" x2="1640" y2="24.2161" gradientUnits="userSpaceOnUse">
<stop stop-color="#FF6060"/>
<stop offset="1" stop-color="#FE124A"/>
</linearGradient>
<linearGradient id="paint8_linear_314_1888" x1="1628" y1="24.3158" x2="1640" y2="24.2161" gradientUnits="userSpaceOnUse">
<stop stop-color="#FF6060"/>
<stop offset="1" stop-color="#FE124A"/>
</linearGradient>
<linearGradient id="paint9_linear_314_1888" x1="1480" y1="47" x2="1479.5" y2="188" gradientUnits="userSpaceOnUse">
<stop stop-color="#B1DAFF"/>
<stop offset="1" stop-color="#B1DAFF" stop-opacity="0"/>
</linearGradient>
</defs>
</svg>
